<?xml version="1.0" encoding="UTF-8" standalone="no"?>
<!-- Created with Inkscape (http://www.inkscape.org/) -->

<svg
   version="1.1"
   id="svg2"
   width="1920"
   height="1080"
   viewBox="0 0 1920 1080"
   xmlns="http://www.w3.org/2000/svg"
   xmlns:svg="http://www.w3.org/2000/svg">
  <defs
     id="defs6" />
  <g
     id="g8"
     transform="translate(-3.4352744,-3.7291572)">
    <path
       style="fill:#000000"
       d="M 3.4352743,543.72913 V 3.7291571 H 963.43532 1923.4353 V 543.72913 1083.7291 H 963.43532 3.4352743 Z M 511.18532,1038.1357 c 2.4484,-2.7402 2.7688,-4.9117 1.2962,-8.7848 -0.8331,-2.1914 -0.3907,-3.1346 3.5,-7.4621 l 4.4538,-4.9536 v -18.00957 -18.0097 l 11.8111,-11.8742 11.8112,-11.8741 9.4388,0.1514 9.4389,0.1515 14.7696,-14.6207 c 8.1233,-8.0414 14.9963,-14.8187 15.2734,-15.0607 0.277,-0.242 11.6306,-0.6089 25.2303,-0.8153 l 24.7267,-0.3752 7,-6.8899 7,-6.8898 9,-0.2403 c 15.0653,-0.4022 17.0953,-1.5751 2.9731,-1.7178 l -13.0268,-0.1317 -6.9463,7 -6.9464,7 h -25.0348 -25.0349 l -13.992,13.8432 c -7.6955,7.6137 -14.8949,14.3209 -15.9986,14.9049 -1.2099,0.6402 -5.3222,0.8501 -10.3576,0.5287 l -8.351,-0.5332 -12.8924,12.8638 -12.8923,12.8638 v 18.3239 18.32397 l -3.7118,4.4404 c -3.4284,4.1015 -4.0718,4.4405 -8.4274,4.4405 -3.9034,0 -5.0727,0.4539 -6.7883,2.6349 -3.8119,4.846 -1.9118,11.4641 3.9275,13.6797 2.5856,0.981 6.4109,-0.2903 8.75,-2.908 z m 47.2851,-3.9248 c 2.9228,-1.5114 4.6405,-5.2143 4.0904,-8.8175 -0.1542,-1.0097 0.4763,-2.6719 1.4011,-3.6937 1.4205,-1.5697 1.7582,-5.0078 2.1768,-22.16417 l 0.4954,-20.3064 15.1506,-15.3235 c 8.3328,-8.428 16.5006,-15.8963 18.1506,-16.5962 1.65,-0.6999 7.275,-1.3654 12.5,-1.4788 l 9.5,-0.2062 5.0314,-4.9476 5.0314,-4.9477 13.9686,-0.1408 c 10.9674,-0.1105 12.7869,-0.3041 8.4686,-0.9011 -3.025,-0.4181 -9.567,-0.8048 -14.5376,-0.8592 l -9.0376,-0.099 -4.9248,5 -4.9249,5 h -11.048 -11.048 l -17.8731,17.8938 -17.873,17.8938 0.7169,19.4514 c 0.6399,17.36137 0.5393,19.62887 -0.936,21.10417 -1.2321,1.2321 -2.1275,1.3988 -3.5176,0.6548 -3.0513,-1.6329 -7.8416,-1.1528 -9.9963,1.002 -4.2005,4.2004 -2.1776,12.2259 3.3544,13.308 1.18,0.2308 2.2804,0.4809 2.4452,0.5558 0.1648,0.075 1.6208,-0.547 3.2355,-1.382 z m -122.3875,-40.23177 c 2.1178,-2.2819 2.4726,-3.4588 2.0847,-6.9149 -0.443,-3.947 -0.1867,-4.4423 4.9001,-9.4659 l 5.3676,-5.3009 v -9.7572 -9.7573 l 11.5216,-11.6398 11.5217,-11.6398 -0.2717,-18.6371 -0.2716,-18.6371 -19.9392,0.2607 -19.9391,0.2606 -7.6961,7.4894 -7.696,7.4893 h -23.2965 -23.2966 l -8.2626,8.065 c -7.4599,7.2813 -8.4715,7.9532 -10.4115,6.915 -4.8376,-2.5891 -10.9624,1.7161 -10.9624,7.7056 0,5.0135 3.1681,8.3249 7.9243,8.2826 6.0994,-0.054 9.611,-4.6147 7.9671,-10.3468 -0.7654,-2.6687 -0.2683,-3.4772 6.3078,-10.2592 l 7.1388,-7.3622 h 24.106 24.106 l 7.45,-7.5 7.4499,-7.5 h 18.275 18.2751 v 16.2663 16.2663 l -11.5,11.4674 -11.5,11.4674 v 9.4849 9.4848 l -5.0851,5.1491 c -4.8571,4.9181 -5.2796,5.127 -9.424,4.6599 -3.6915,-0.4161 -4.7232,-0.1047 -6.9149,2.087 -3.3389,3.3388 -3.5239,9.0291 -0.4017,12.3525 3.1949,3.4008 9.1044,3.1944 12.4733,-0.4356 z m 37.3829,-29.2785 c 3.1152,-2.9101 3.221,-3.261 2.7033,-8.97 -0.5254,-5.7942 -0.442,-6.0515 3.3637,-10.375 l 3.9025,-4.4334 v -17.8326 -17.8327 l 12.7355,-12.7639 12.7356,-12.7639 h 9.197 c 8.3355,0 9.2569,0.1884 9.8353,2.011 0.7248,2.2834 5.3474,4.989 8.5238,4.989 3.1861,0 7.9728,-5.2762 7.9728,-8.7882 0,-3.8151 -3.2492,-7.888 -6.9392,-8.6984 -3.5478,-0.7792 -8.6475,1.6089 -9.5574,4.4757 -0.5799,1.8272 -1.4993,2.0109 -10.0638,2.0109 h -9.4255 l -14.0071,14.2049 -14.007,14.2048 v 17.8175 17.8175 l -3.9995,4.3389 c -3.9073,4.2389 -4.0884,4.3151 -7.8654,3.307 -10.4024,-2.7766 -16.8755,10.8212 -8.597,18.0594 3.8575,3.3728 9.3902,3.0535 13.4924,-0.7785 z m -11.3957,-2.0441 c -5.3913,-4.2407 -2.3207,-12.3365 4.6044,-12.1396 6.46,0.1836 9.174,8.1688 4.1259,12.1396 -1.4492,1.14 -3.4135,2.0726 -4.3651,2.0726 -0.9517,0 -2.916,-0.9326 -4.3652,-2.0726 z m -146.1613,-9.0783 c 2.2642,-2.6908 2.5531,-3.7319 1.9789,-7.1305 l -0.6724,-3.9797 19.3504,-19.3694 19.3503,-19.3695 h 18.0365 18.0364 l 6.9464,-7 6.9463,-7 h 30.5098 30.5097 l 10.2671,-10.2321 10.2671,-10.2321 v -6.9928 -6.9928 l 6.7231,-6.7751 6.7232,-6.7751 h 19.4621 19.462 l 17.1009,-17 17.1009,-17 h 12.4509 12.451 l 13.6941,-13.6679 13.6941,-13.6679 51.8188,-0.2353 c 28.5004,-0.1294 54.5649,-0.2788 57.9213,-0.3321 l 6.1024,-0.097 8.3976,-8.4754 c 4.6186,-4.6614 8.7351,-8.4864 9.1476,-8.5 0.4125,-0.014 0.75,2.1052 0.75,4.7084 0,4.6665 -0.1435,4.8768 -10.2322,15 l -10.2321,10.267 h -35.0029 -35.0028 l -11.765,11.7344 c -6.4708,6.4539 -11.765,12.2354 -11.765,12.8478 0,0.6123 2.5875,3.5762 5.75,6.5864 l 5.75,5.473 7.5,-0.258 c 7.4413,-0.2561 7.5156,-0.2334 9.5063,2.9073 1.1035,1.741 3.1989,3.5848 4.6564,4.0974 3.6068,1.2684 8.5167,-0.8677 10.4101,-4.5291 l 1.4785,-2.8592 h 29.2364 29.2365 l 15.3858,-15.4099 15.3859,-15.4099 0.2148,-7.3401 c 0.1182,-4.037 0.2766,-16.9265 0.3521,-28.6432 l 0.1372,-21.3032 16.25,-16.3072 16.25,-16.3072 28.6202,-0.6843 28.6202,-0.6843 3.1298,2.6336 c 1.7213,1.4484 3.1298,3.0435 3.1298,3.5446 0,0.5274 -12.3143,0.9111 -29.2375,0.9111 h -29.2375 l -14.2625,14.2371 -14.2625,14.2371 0.1,29.0129 c 0.055,16.1001 0.456,27.9002 0.9003,26.5129 0.4403,-1.375 0.8455,-13.9808 0.9003,-28.0129 l 0.1,-25.5129 14.25,-14.1356 14.25,-14.1355 28.3117,-0.4633 c 15.5715,-0.2548 28.7233,-0.8748 29.2264,-1.3779 0.5527,-0.5527 -0.6128,-2.5854 -2.9463,-5.1382 l -3.8608,-4.2237 h -29.3762 -29.3763 l -17.3599,17.3812 -17.3599,17.3812 0.3706,28.6051 0.3707,28.605 -14.9875,15.0138 -14.9875,15.0137 h -28.2383 -28.2382 l -3.185,-3.5 c -2.5836,-2.8392 -3.9097,-3.5 -7.0242,-3.5 -3.7238,0 -7.8393,2.625 -7.8393,5 0,0.5849 -3.385,1 -8.1549,1 h -8.1548 l -3.9384,-4.1401 -3.9384,-4.1401 10.8262,-10.8599 10.8262,-10.8599 h 34.5014 34.5014 l 11.2656,-11.2337 11.2657,-11.2337 v -8.7663 c 0,-4.8214 -0.3456,-8.7663 -0.7679,-8.7663 -0.4223,0 -5.4768,4.725 -11.2321,10.5 l -10.4643,10.5 h -57.9404 -57.9403 l -14.1204,14 -14.1203,14 h -12.3118 -12.3117 l -16.6454,16.4832 -16.6454,16.4831 -19.3649,0.017 -19.3648,0.017 -7.8852,7.6734 -7.8851,7.6734 v 7.462 7.462 l -9.4564,9.3646 -9.4564,9.3646 h -30.2218 -30.2218 l -7.707,7.5 -7.707,7.5 h -17.3742 -17.3742 l -19.869,19.8876 c -19.6304,19.6489 -19.9131,19.8817 -23.5445,19.3946 -3.2592,-0.4371 -4.0376,-0.081 -6.8716,3.1472 -3.6472,4.1538 -3.7405,4.6173 -1.7172,8.5299 1.6873,3.2629 2.7538,3.8511 7.1822,3.9617 2.3737,0.059 3.8214,-0.7058 5.8124,-3.0719 z m 373.654,-48.5991 c 1.2439,-1.586 1.2085,-1.6214 -0.3775,-0.3775 -0.9625,0.7548 -1.75,1.5423 -1.75,1.75 0,0.823 0.8211,0.2933 2.1275,-1.3725 z m 12.8725,-12.75 c 1.2917,-1.375 2.1236,-2.5 1.8486,-2.5 -0.275,0 -1.5569,1.125 -2.8486,2.5 -1.2918,1.375 -2.1237,2.5 -1.8487,2.5 0.275,0 1.5569,-1.125 2.8487,-2.5 z m -230.2709,-18.7279 8.2709,-8.2279 v -10.0355 -10.0355 l 14,-13.9732 14,-13.9732 v -11.5251 -11.5251 l 15.77,-15.747 15.7701,-15.747 95.9799,-8e-4 95.98,-8e-4 36,-35.9761 36,-35.9762 45,-0.1523 c 24.75,-0.084 46.35,-0.4869 48,-0.896 1.65,-0.4091 -12.3,-0.8041 -31,-0.8778 -18.7,-0.074 -40.6676,-0.4199 -48.8167,-0.7692 l -14.8167,-0.6351 -35.6833,35.6269 -35.6833,35.6269 -95.7394,0.274 -95.7393,0.2739 -17.0107,16.989 -17.0106,16.989 v 11.4335 11.4335 l -14,14.1204 -14,14.1203 v 9.4351 9.435 l -7.7266,7.7721 -7.7265,7.7721 h -16.3707 -16.3707 l -6.7328,-6.5 c -5.6146,-5.4204 -7.3009,-6.5 -10.1528,-6.5 -2.7099,0 -3.9998,-0.7267 -6.2126,-3.5 -2.3068,-2.8911 -3.4508,-3.5 -6.5757,-3.5 -2.6387,0 -4.4137,0.6806 -5.8679,2.25 -3.991,4.3071 -3.0327,11.1028 1.8555,13.1581 4.2941,1.8056 7.5693,0.8754 10.6902,-3.036 4.1382,-5.1863 6.53,-4.5957 14.6906,3.6279 l 6.9463,7 h 18.0059 18.006 z m 241.4996,0.5539 c 0.4368,-6.6986 0.7098,-7.4023 4.1195,-10.6181 4.0177,-3.7892 4.619,-6.8819 2.0508,-10.5485 -2.2427,-3.2019 -5.6792,-4.3063 -9.3827,-3.0152 -3.4522,1.2034 -5.0163,3.4971 -5.0163,7.3558 0,3.654 1.6821,6.4287 4.5608,7.5231 2.3116,0.8789 2.4392,1.3559 2.4392,9.1188 0,9.9013 0.5893,9.9896 1.2287,0.1841 z m -261.4796,-20.1019 c 2.6849,-2.0669 4.1653,-6.763 3.223,-10.2241 -0.6061,-2.226 1.2558,-4.4729 16.9869,-20.5 l 17.6677,-18 -0.2496,-5.5 c -0.1373,-3.025 -0.2783,-13.289 -0.3134,-22.809 -0.035,-9.52 -0.4421,-17.0751 -0.9046,-16.7893 -0.4625,0.2858 -1.1206,10.5282 -1.4626,22.7608 l -0.6216,22.2411 -16.6887,16.7103 -16.6887,16.7104 -5.1587,-0.5324 c -4.861,-0.5017 -5.3138,-0.348 -7.8487,2.6646 -3.6107,4.291 -3.5326,8.3549 0.2329,12.1204 3.408,3.408 8.2759,3.8802 11.8261,1.1472 z m -7.9213,-1.4274 c -5.6567,-1.9294 -5.3216,-10.1957 0.4962,-12.2417 3.3004,-1.1607 5.4832,-0.082 7.676,3.7938 1.3333,2.3566 1.3333,2.9452 0,5.2966 -1.8502,3.2628 -4.6641,4.3479 -8.1722,3.1513 z m -17.3807,-13.7766 c 1.4176,-0.539 3.0941,-2.114 3.7257,-3.5 1.0439,-2.2912 1.7004,-2.5201 7.2278,-2.5201 h 6.0796 l 18.2599,-18.2398 18.2599,-18.2399 -0.015,-12.5101 c -0.01,-6.8806 -0.39,-13.101 -0.848,-13.8232 -0.8944,-1.4104 -2.1367,10.0452 -2.1367,19.7035 v 5.5887 l -17.2393,17.2604 -17.2393,17.2604 h -5.3253 c -4.6893,0 -5.6267,-0.3582 -7.8496,-3 -1.3884,-1.65 -3.1694,-3 -3.9578,-3 -1.9223,0 -10.3887,7.883 -10.3887,9.6728 0,2.0968 4.6063,6.3272 6.8894,6.3272 1.0892,0 3.1402,-0.4409 4.5577,-0.9799 z m 118.0808,-47.2148 c 3.5075,-1.5981 5.6989,-6.0357 4.9794,-10.0831 -0.4858,-2.7329 -0.027,-3.7916 3.0229,-6.9722 l 3.5957,-3.75 h 88.6548 88.6548 l 35.5322,-35.3967 35.5323,-35.3968 40.5,-0.5048 c 36.2657,-0.452 40.7091,-0.336 42.5,1.1096 1.5571,1.257 1.5071,1.0807 -0.2258,-0.7964 l -2.2257,-2.4108 -41.0766,-0.4292 -41.0765,-0.4291 -35.6977,35.6186 -35.6977,35.6187 -88.5471,0.01 -88.547,0.01 -3.9322,4.0269 c -3.6405,3.7282 -4.2316,3.982 -7.9685,3.4216 -3.1785,-0.4766 -4.5935,-0.167 -6.6584,1.4573 -4.9849,3.9212 -4.4358,11.6178 1.0412,14.5945 3.2467,1.7646 4.3406,1.8082 7.6399,0.305 z m -64.5279,-47.7511 v -14.7008 l 5.5202,-5.654 5.5202,-5.6541 14.3598,0.4744 c 11.9405,0.3945 14.5691,0.2222 15.6022,-1.0226 1.0947,-1.3191 -0.708,-1.4971 -15.1613,-1.4971 h -16.4038 l -5.6012,5.75 -5.6013,5.75 -0.5514,16.8177 c -0.4765,14.533 -0.3566,16.6559 0.8826,15.6275 1.1263,-0.9347 1.434,-4.3444 1.434,-15.891 z m 283.4682,-25.976 36.0318,-35.9218 47,-0.5254 c 25.85,-0.289 50.15,-0.6178 54,-0.7307 l 7,-0.2052 -6.5,-0.7307 c -3.575,-0.4018 -28.0977,-0.7832 -54.4949,-0.8475 l -47.9949,-0.1169 -35.5478,35.5376 -35.5479,35.5376 -82.2017,0.244 -82.2017,0.244 -13.2556,-12.736 -13.2555,-12.736 -6,0.025 c -9.771,0.04 -11.2189,1.5111 -2.3295,2.3663 l 7.6706,0.7379 12.8065,12.89 12.8065,12.8899 h 82.9911 82.9912 l 36.0318,-35.9218 z m -274.4682,25.1507 c 0,-6.4709 0.1152,-6.7706 4.2082,-10.941 4.1231,-4.2012 4.3429,-4.2879 10.8775,-4.2879 4.7084,0 7.0354,-0.441 7.9143,-1.5 1.0885,-1.3116 0.2602,-1.5 -6.5962,-1.5 h -7.841 l -5.2814,5.2159 -5.2814,5.2158 v 7.8432 c 0,4.9741 0.3658,7.6171 1,7.2251 0.55,-0.3399 1,-3.6119 1,-7.2711 z m 269.4949,-34.2046 36.0051,-35.9758 59,-0.1783 c 32.45,-0.098 60.35,-0.5057 62,-0.9059 1.8346,-0.445 -1.6613,-0.775 -9,-0.8496 -6.6,-0.067 -34.8621,-0.4189 -62.8045,-0.7818 l -50.8046,-0.6598 -36.2135,36.1634 -36.2136,36.1635 h -74.8185 -74.8185 l -13.6634,-12.9982 -13.6634,-12.9983 -5,0.069 c -8.4597,0.116 -9.819,1.5167 -2.2267,2.2945 l 6.7094,0.6874 12.7586,12.9778 12.7587,12.9777 76.9949,-0.01 h 76.9949 l 36.0051,-35.9757 z m -577.5665,26.5127 c 1.5561,-0.8046 3.1087,-2.1915 3.4504,-3.0818 0.9022,-2.3512 0.7336,-6.729 -0.3236,-8.4 -0.6224,-0.9838 -0.2767,-2.3398 1.0835,-4.25 1.9262,-2.7051 2.3074,-2.8052 10.6873,-2.8052 h 8.6899 l 23.4841,-23.5 23.484,-23.5 h 15.5209 15.5209 l 14.4742,14.5 14.4741,14.5 h 12.53 12.53 l 10.9659,11 10.9658,11 h 52.9881 52.9881 l 5.6957,-5.6362 5.6957,-5.6363 26.4282,0.1755 c 22.7165,0.1509 26.6077,-0.041 27.7058,-1.3637 1.1448,-1.3794 -1.6201,-1.5393 -26.6263,-1.5393 h -27.9038 l -5.9373,6 -5.9374,6 h -52.0484 -52.0484 l -10.9658,-11 -10.9659,-11 h -12.53 -12.53 l -14.4741,-14.5 -14.4742,-14.5 h -16.5211 -16.5211 l -22.9836,23 -22.9837,23 h -8.6546 c -8.5244,0 -8.6978,0.049 -11.5281,3.2728 -2.4164,2.7521 -3.5633,3.2727 -7.2103,3.2727 -5.0885,0 -8.1233,2.8509 -8.1233,7.6311 0,7.1433 5.6301,10.6174 11.9284,7.3604 z m 498.3286,-8.287 c 3.3711,-3.2908 4.4395,-3.7515 8.725,-3.7625 6.3596,-0.016 10.018,-3.1106 10.018,-8.4732 0,-6.3902 -6.0365,-10.4845 -11.8858,-8.0616 -3.8419,1.5914 -5.5145,5.0262 -4.8522,9.9645 0.4974,3.7084 0.2301,4.309 -3.3637,7.5557 l -3.9041,3.5271 h -35.31 -35.3101 l -2.6987,-2.8168 c -2.1579,-2.2524 -2.5767,-3.427 -2.0898,-5.8615 2.0384,-10.1917 -12.5752,-15.0038 -16.5347,-5.4447 -2.6159,6.3154 3.3317,13.0242 10.3752,11.7029 2.6519,-0.4975 3.6641,-0.095 6.0656,2.4115 l 2.8824,3.0086 h 37.0208 37.0207 z m -213.257,-18.75 4.4164,-4.5 h 32.2327 c 20.4099,0 32.4595,-0.3668 32.8509,-1 0.4073,-0.659 -10.7536,-1 -32.7328,-1 h -33.3508 l -4.4164,4.5 -4.4165,4.5 h -48.5605 -48.5606 l -9.9624,-10 -9.9625,-10 h -13.0261 -13.0262 l -25.2863,-25.3009 -25.2863,-25.3009 0.6645,-4.1552 c 0.5967,-3.7316 0.3541,-4.4655 -2.3794,-7.1991 -3.9579,-3.9579 -7.4365,-3.959 -11.3917,0 -2.5419,2.5419 -2.9391,3.566 -2.4241,6.25 0.3388,1.7655 1.8133,4.2627 3.2769,5.5495 2.2027,1.9367 3.3653,2.2349 6.751,1.7318 l 4.0902,-0.6078 25.4926,25.5182 25.4926,25.5182 h 12.5262 12.5261 l 9.9625,10 9.9624,10 h 50.0606 50.0605 z m 111.5328,-6 7.7725,-7.5 h 58.6224 58.6223 l 7.45,-7.5 7.4499,-7.5 h 26.0087 26.0087 l 10.5163,-10.3893 10.5164,-10.3893 54.5,-0.5958 c 29.975,-0.3277 61.25,-0.6557 69.5,-0.729 9.1169,-0.081 13.8233,-0.4326 12,-0.8966 -1.65,-0.4198 -33.3831,-0.8166 -70.5179,-0.8817 l -67.5179,-0.1183 -10.4642,10.5 -10.4643,10.5 h -25.4944 -25.4943 l -7.0235,6.8827 -7.0235,6.8827 -59.4971,0.6364 -59.497,0.6363 -7.5251,7.481 -7.5251,7.4809 h -11.6029 c -6.3816,0 -13.1216,0.3185 -14.9778,0.7078 l -3.375,0.7077 3,0.674 c 1.65,0.3706 8.6835,0.7271 15.6301,0.7922 l 12.6302,0.1183 z m -118.7366,-3.7971 8.7433,-8.7029 h 40.6078 c 34.8758,0 40.7835,-0.2117 41.8527,-1.5 1.1031,-1.3292 -3.5141,-1.5 -40.5655,-1.5 h -41.8102 l -9.1775,9 -9.1774,9 h -33.4035 -33.4035 l -9.9624,-10 -9.9625,-10 h -15.5501 -15.5501 l -5.8182,-5.8796 c -5.0933,-5.1469 -5.6813,-6.1357 -4.7187,-7.9343 2.7902,-5.2136 0.329,-11.3566 -5.5311,-13.8051 -2.8969,-1.2104 -3.8418,-1.2104 -6.7387,0 -7.1659,2.9941 -8.8683,10.5352 -3.5736,15.83 2.8383,2.8382 3.4371,3.0178 8.3665,2.5091 l 5.3093,-0.548 5.8523,5.914 5.8522,5.9139 h 15.5501 15.5501 l 9.9175,9.9549 c 5.4546,5.4752 10.8462,10.0877 11.9812,10.25 1.1351,0.1623 16.5882,0.2739 34.3402,0.248 l 32.2764,-0.047 8.7434,-8.7029 z m -151.8855,-26.574 c -5.128,-4.1525 -1.7248,-13.1289 4.9775,-13.1289 5.9628,0 9.3993,5.6095 6.67,10.8875 -2.3513,4.5467 -7.5621,5.5495 -11.6475,2.2414 z m 268.608,21.8338 9.9813,-10.0373 58.3391,0.1651 58.3391,0.1652 5.1923,-5.1279 5.1923,-5.1278 h 24.4197 24.4196 l 12.1381,-12 12.1381,-12 h 64.0027 c 35.2015,0 70.2614,-0.3375 77.9108,-0.75 l 13.9082,-0.75 -14,-0.5223 c -7.7,-0.2874 -43.025,-0.6333 -78.5,-0.7688 l -64.5,-0.2464 -11.4837,11.5188 -11.4837,11.5187 h -24.5505 -24.5505 l -5.4316,5.5 -5.4317,5.5 h -58.5521 -58.552 l -10.4642,10.5 -10.4643,10.5 h -9.2089 c -5.0648,0 -9.4869,0.45 -9.8268,1 -0.3975,0.6432 3.2458,1 10.2097,1 h 10.8278 z m -105.0376,-36.9627 26.0679,-26 h 31.9989 31.999 l 7.9531,8 7.953,8 h 7.6511 c 5.5809,0 7.9878,-0.4058 8.8959,-1.5 1.0907,-1.3142 0.1429,-1.5 -7.6526,-1.5 h -8.8975 l -7.4499,-7.5 -7.45,-7.5 h -33.0324 -33.0324 l -25.4852,25.5 -25.4853,25.5 h -31.5492 -31.5491 l -4.2906,-4.3718 c -4.1576,-4.2362 -4.2581,-4.4896 -3.2419,-8.1699 1.268,-4.5923 -0.5991,-9.4327 -4.4292,-11.4825 -1.3501,-0.7225 -2.4547,-1.6877 -2.4547,-2.1448 0,-0.457 18.367,-0.831 40.8157,-0.831 h 40.8157 l 24.1,-24 24.0999,-24 45.8343,-0.087 c 25.2089,-0.048 55.9889,-0.014 68.3999,0.075 19.4457,0.1392 22.7463,-0.056 23.8725,-1.4132 1.1871,-1.4304 -5.0976,-1.5747 -68.5733,-1.5747 h -69.8801 l -24.4846,24.5 -24.4847,24.5 h -73.2724 -73.2723 l -3.4848,-3.25 c -3.4593,-3.2262 -3.4748,-3.2787 -2.1048,-7.173 2.6795,-7.6168 -1.208,-13.577 -8.8555,-13.577 -5.9132,0 -9.5255,3.6026 -9.5255,9.5 0,3.2341 0.6194,4.8467 2.6363,6.8637 2.6432,2.6431 4.2773,3.0954 9.8688,2.7314 2.2756,-0.1481 3.8404,0.6662 6.4461,3.3547 l 3.4411,3.5502 h 31.3038 c 20.2026,0 31.3039,0.3547 31.3039,1 0,0.55 -0.3887,1 -0.8637,1 -0.475,0 -2.05,1.1864 -3.5,2.6364 -3.088,3.088 -3.6222,9.5111 -1.0915,13.1241 1.9929,2.8454 7.002,4.1613 11.3549,2.9831 3.228,-0.8738 3.6568,-0.6633 8.4881,4.1681 l 5.0883,5.0883 h 31.4685 31.4685 z m -111.3068,12.6856 c -2.8883,-3.0744 -2.8263,-7.7245 0.1401,-10.5113 4.678,-4.3947 12.6856,-1.0972 12.6856,5.224 0,6.7061 -8.2845,10.1212 -12.8257,5.2873 z m -78.1018,-28.3204 c -2.7493,-3.4953 -2.6177,-6.9109 0.382,-9.9106 3.1496,-3.1496 7.4888,-3.2083 10.3711,-0.1401 3.2057,3.4122 2.8873,8.0416 -0.73,10.6174 -3.9896,2.8408 -7.4988,2.6424 -10.0231,-0.5667 z m 211.6278,29.0253 c 3.1678,-1.9746 4.5695,-7.8089 2.8594,-11.9018 l -1.3539,-3.2402 7.6692,-7.6243 7.6692,-7.6242 h 24.4432 24.4432 l 7.8089,8 c 7.398,7.5791 8.038,8 12.1622,8 2.6497,0 4.8405,-0.587 5.5983,-1.5 1.0804,-1.3018 0.5317,-1.5 -4.1526,-1.5 -5.388,0 -5.4106,-0.013 -12.8474,-7.5 l -7.45,-7.5 h -26.0029 -26.0029 l -7.7384,7.6931 c -7.6769,7.6318 -7.7767,7.691 -12.5584,7.4372 -6.5441,-0.3474 -10.2474,2.8645 -10.2474,8.8877 0,5.3177 1.4055,7.8234 5.3287,9.5 3.3971,1.4518 6.833,1.0782 10.3716,-1.1275 z m -11.526,-2.7049 c -3.0767,-3.275 -2.872,-7.9916 0.4605,-10.613 5.2964,-4.1661 12.3652,-0.9833 12.3652,5.5676 0,6.4717 -8.3865,9.7707 -12.8257,5.0454 z m 144.7217,-6.1856 9.2552,-9.5 h 13.3244 13.3244 l 3.5,3.5 c 2.2716,2.2716 4.4476,3.5 6.2,3.5 1.7523,0 3.9284,-1.2284 6.2,-3.5 3.4225,-3.4225 3.6788,-3.5 11.5817,-3.5 h 8.0817 l 8.1961,-8 8.1961,-8 103.3722,-0.1382 c 56.8547,-0.076 106.0722,-0.2694 109.3722,-0.4295 3.3,-0.1602 10.725,-0.3927 16.5,-0.5166 l 10.5,-0.2253 -8.5,-0.746 c -4.675,-0.4102 -58.9113,-0.7905 -120.5251,-0.8451 l -112.025,-0.099 -7.4499,7.5 -7.45,7.5 h -8.2891 c -8.0629,0 -8.3672,-0.087 -11.1483,-3.2 -4.0071,-4.4847 -9.2047,-4.4999 -13.191,-0.038 l -2.8249,3.1616 -13.7946,0.1381 -13.7947,0.138 -10.3139,10.1503 -10.3139,10.1503 -17.6898,0.3358 c -24.8232,0.4711 -24.4863,2.1643 0.4306,2.1643 h 20.0205 z m 40.8028,-7.2802 c -3.9966,-4.4163 -0.64,-10.6268 5.4264,-10.0401 4.6974,0.4543 7.0474,4.6125 4.8433,8.5703 -1.9619,3.5231 -7.6719,4.3403 -10.2697,1.4698 z m -490.8695,11.1923 c 1.8786,-2.1841 2.268,-3.6312 2.0015,-7.438 -0.3111,-4.4443 -0.047,-5.0297 4.4192,-9.8074 l 4.75,-5.081 v -17.2784 -17.2784 l 12.2349,-12.2644 c 14.0374,-14.0712 15.5901,-14.7131 21.2003,-8.7645 4.0947,4.3416 8.439,4.7167 12.1102,1.0455 6.1255,-6.1255 -0.3323,-16.2587 -8.5384,-13.3981 -1.693,0.5902 -3.7379,2.3653 -4.5631,3.961 -1.2444,2.4065 -2.1225,2.8916 -5.2335,2.8916 -3.4644,0 -4.7076,0.9714 -16.9743,13.2634 l -13.2361,13.2634 v 17.0284 17.0284 l -4.329,4.2485 c -3.9335,3.8605 -4.5787,4.1535 -7.0651,3.2082 -4.4583,-1.6951 -7.3837,-1.2107 -10.7265,1.7762 -2.6251,2.3454 -3.1522,3.5467 -3.1522,7.1835 0,3.6724 0.5215,4.8331 3.2782,7.2962 2.8287,2.5274 3.8415,2.8536 7.3848,2.3783 2.7793,-0.3728 4.8605,-1.4273 6.4391,-3.2624 z m -10.514,0.5809 c -4.3217,-1.7412 -5.7057,-8.1283 -2.5653,-11.8395 2.9173,-3.4477 6.4811,-3.6713 10.0916,-0.6333 4.6518,3.9142 4.2385,9.3528 -0.9132,12.0168 -3.197,1.6533 -3.5766,1.6795 -6.6131,0.456 z m 462.1847,-26.993 16.9779,-17 h 12.5378 12.5379 l 6.9464,-7 6.9463,-7 h 58.4955 58.4955 l -5.9373,-6 -5.9374,-6 h -55.3879 -55.3879 l -7.2191,7 -7.2192,7 h -10.3577 -10.3576 l -16.846,16.75 c -14.1695,14.0889 -17.5165,16.92 -21.0666,17.8201 l -4.2206,1.0701 3.9135,0.7559 3.9135,0.7559 17.0969,-17.076 17.0969,-17.076 h 11.2879 11.2879 l 7.1633,-7.0506 7.1634,-7.0506 53.8086,0.2452 c 50.7213,0.2312 53.9223,0.3511 55.7884,2.0896 1.0888,1.0144 1.9797,2.2768 1.9797,2.8054 0,0.6029 -20.2257,0.961 -54.2769,0.961 h -54.2768 l -6.9463,7 -6.9464,7 h -12.5379 -12.5378 l -16.9779,17 -16.978,17 h -5.636 c -3.0998,0 -7.1548,0.3244 -9.011,0.7208 l -3.375,0.7208 3.5,0.6476 c 1.925,0.3561 6.2049,0.7068 9.511,0.7792 l 6.011,0.1316 z m -260.0521,-17.9479 20.9301,-20.9479 7.561,0.2688 7.561,0.2687 8.0758,-7.8283 c 4.4418,-4.3055 8.3493,-7.5549 8.6834,-7.2208 0.3341,0.3341 2.3094,0.6074 4.3897,0.6074 6.3323,0 10.1032,-6.0416 7.1877,-11.5157 -1.7073,-3.2056 -3.9542,-4.6207 -7.3366,-4.6207 -5.5168,0 -9.0169,4.6642 -7.9136,10.5453 0.6398,3.4107 0.3462,3.9088 -6.1805,10.486 l -6.8523,6.9051 h -8.036 -8.0359 l -20.4817,20.5 -20.4817,20.5 h -15.0181 -15.0181 l -20.9821,-21 -20.9822,-21 h -28.0718 -28.0719 l -2.9371,3.0727 c -2.6554,2.7779 -3.3459,3.0116 -7.2007,2.4367 -3.8198,-0.5698 -4.5744,-0.3252 -7.25,2.3504 -3.8581,3.8582 -3.8781,7.4023 -0.063,11.2171 3.5754,3.5754 7.0179,3.7382 10.7712,0.5094 2.4249,-2.086 2.7802,-3.0702 2.6176,-7.25 -0.1558,-4.0027 0.2642,-5.3102 2.4371,-7.5863 l 2.6252,-2.75 h 27.016 27.0159 l 21.547,21.4937 21.547,21.4937 15.0089,0.01 15.0089,0.01 20.9301,-20.9479 z m 99.0521,-4.0521 19.9812,-20 h 77.6369 c 66.4645,0 77.8095,-0.2078 78.8358,-1.4445 1.0433,-1.2571 -9.0196,-1.4525 -77.5902,-1.5068 l -78.7889,-0.062 -20.5918,20.5068 -20.5918,20.5069 h -22.9798 -22.9798 l -5.4299,-5.4982 -5.43,-5.4983 4.9265,-5.0017 4.9266,-5.0018 h 7.5497 7.5497 l 15.4758,-15.5 15.4758,-15.5 h 39.49 39.49 l -8.4558,-8.5 -8.4559,-8.5 h -25.9008 -25.9009 l -8.6863,-8.5 -8.6863,-8.5 h -10.952 -10.952 l -10.9658,11 -10.9659,11 h -35.5421 -35.5421 l -7.4499,-7.5 -7.45,-7.5 h -33.4346 -33.4346 l -5.7662,-5.5 -5.7662,-5.5 h -14.5196 -14.5197 l -1.3046,-2.75 c -0.7175,-1.5125 -2.9574,-3.558 -4.9776,-4.5456 -3.3025,-1.6144 -4.0206,-1.6503 -7.1193,-0.3556 -7.1517,2.9882 -8.9696,10.5431 -3.7846,15.7281 5.2732,5.2732 13.6279,3.8123 16.167,-2.8269 0.8369,-2.1884 1.252,-2.25 15.1728,-2.25 h 14.3123 l 4.9249,5 4.9248,5 h 33.9097 33.9098 l 8.1961,8 8.1961,8 h 35.559 35.5591 l 11.5534,-11.5 11.5535,-11.5 h 9.698 9.698 l 8.6863,8.5 8.6863,8.5 h 25.9662 25.9663 l 5.7457,5.8063 c 3.1601,3.1935 5.4335,6.1185 5.052,6.5 -0.3815,0.3816 -16.9366,0.6937 -36.7891,0.6937 h -36.0954 l -15.4758,15.5 -15.4758,15.5 h -7.9831 -7.9832 l -5.7821,5.7218 -5.7821,5.7218 6.7263,6.7782 6.7263,6.7782 h 24.0362 24.0362 z m -281.5893,-64.8711 c -5.1776,-4.1927 -1.7136,-13.1289 5.0893,-13.1289 4.3598,0 7.4,3.0813 7.4,7.5 0,4.4188 -3.0402,7.5 -7.4,7.5 -1.5282,0 -3.8183,-0.842 -5.0893,-1.8711 z m 779.5893,64.9004 c 17.2319,-1.0134 -24.7825,-2.0293 -83.9242,-2.0293 h -56.1036 l -13.4722,-13.5 -13.4723,-13.5 h -60.5407 -60.5407 l -6.9463,7 -6.9464,7 -6.0268,0.011 c -3.3148,0.01 -7.8268,0.3237 -10.0268,0.7058 l -4,0.6947 3,0.6759 c 1.65,0.3718 6.387,0.7292 10.5268,0.7943 l 7.5268,0.1183 6.9464,-7 6.9463,-7 h 59.0407 59.0407 l 13.4861,13.5247 13.4862,13.5248 66.5,-0.2455 c 36.575,-0.135 70.55,-0.4836 75.5,-0.7747 z m 16.1141,-10.3101 c 1.2485,-1.2484 -21.896,-1.7192 -84.5289,-1.7192 h -69.613 l -13.4722,-13.5 -13.4723,-13.5 h -61.493 -61.493 l -8.1517,8.1094 c -7.4146,7.3761 -8.577,8.1574 -12.8543,8.6395 -5.3512,0.6031 -4.2815,2.2107 1.4877,2.2358 3.0832,0.013 4.5173,-0.9844 11.4766,-7.9847 l 7.953,-8 h 60.5374 60.5373 l 13.4861,13.6068 13.4862,13.6068 77.8457,-0.5359 c 42.8152,-0.2947 78.0359,-0.726 78.2684,-0.9585 z m -63.6141,-23.8466 c 43.725,-0.1387 81.75,-0.5084 84.49998,-0.8217 6.875,-0.7831 -72.82308,-2.0509 -128.92798,-2.0509 h -46.0998 l -13.4722,-13.5 -13.4723,-13.5 h -47.6172 c -47.1688,0 -60.3527,0.4755 -59.3243,2.1396 0.2925,0.4732 24.024,0.8604 52.7367,0.8604 h 52.2048 l 13.4241,13.4517 c 13.903,13.9317 14.4087,14.2426 22.5482,13.8606 2.2,-0.1032 39.775,-0.3011 83.5,-0.4397 z m -330.8667,-15.8726 11,-11 h 42.8109 c 36.8731,0 42.9839,-0.2084 44.0583,-1.5031 1.1081,-1.3351 -3.7652,-1.4339 -43.6275,-0.8837 l -44.875,0.6192 -11.0157,10.8838 -11.0156,10.8838 h -16.9994 -16.9994 l -12.4699,-12.5 -12.47,-12.5 h -16.2898 c -16.2159,0 -16.2938,-0.011 -17.1905,-2.3692 -0.4955,-1.3031 -2.3968,-3.5481 -4.2253,-4.9889 l -3.3244,-2.6197 19.5138,-0.011 19.5139,-0.011 13.4723,13.5 13.4722,13.5 h 18.5295 18.5295 l 11.9688,-12 11.9687,-12 h 47.1432 c 39.7333,0 47.3303,-0.2255 48.334,-1.4348 1.0316,-1.2431 -5.2631,-1.4364 -47.0926,-1.4464 l -48.2834,-0.012 -12.0839,11.9464 -12.0839,11.9464 h -18.465 -18.4649 l -13.4722,-13.5 -13.4723,-13.5 h -26.7779 -26.778 l -2.9432,-3.25 c -2.678,-2.9573 -2.8912,-3.7087 -2.3666,-8.343 0.705,-6.229 -0.5012,-8.7453 -5.4429,-11.3547 l -3.7191,-1.9639 66.5208,-0.044 66.5209,-0.044 8.9583,9 8.9583,9 h 40.5347 40.5347 l 13.4486,-13.4763 13.4485,-13.4762 15.9553,-0.2738 c 9.4977,-0.1629 16.0904,-0.6784 16.2891,-1.2737 0.2162,-0.6479 -5.5641,-0.8954 -16.4178,-0.7028 l -16.7514,0.2972 -13.5802,13.4528 -13.5801,13.4528 h -39.2674 -39.2674 l -9.8049,-9.5 -9.805,-9.5 h -83.2425 -83.2425 l -10.105,9.9402 c -9.9673,9.8048 -10.1596,9.933 -14.105,9.4048 -5.4297,-0.7268 -9.5,2.3348 -9.5,7.1458 0,4.7532 0.836,6.373 4.1824,8.1035 6.3044,3.2602 12.6862,-1.8542 11.4925,-9.2102 -0.5869,-3.6166 -0.3377,-3.9974 8.5445,-13.0547 l 9.149,-9.3294 17.0658,0.039 c 15.0269,0.034 16.7073,0.1973 14.0658,1.3634 -4.7109,2.0794 -6.9546,5.2345 -6.9546,9.7797 0,3.3069 0.6008,4.5592 3.3774,7.0401 3.1089,2.7778 3.7901,2.9692 8.5679,2.4077 5.1228,-0.6021 5.2324,-0.558 8.397,3.3799 3.0416,3.7849 3.4905,3.9901 8.7306,3.9901 h 5.5241 l -3.5712,3.368 c -2.9875,2.8176 -3.5712,4.0509 -3.5712,7.5455 0,3.0828 0.6325,4.8099 2.4138,6.5912 5.1026,5.1027 11.52,4.3674 15.5037,-1.7764 l 2.4175,-3.7283 h 15.0975 15.0975 l 12.47,12.5 12.4699,12.5 h 18.8317 18.8317 z m -117.8039,-8.5035 c -6.952,-2.9231 -5.3334,-12.6208 2.3543,-14.1052 2.568,-0.4959 3.6799,-0.1185 5.75,1.9515 6.2805,6.2805 0.072,15.5915 -8.1043,12.1537 z m -28.5952,-28.4909 c -4.8597,-3.8226 -2.9951,-12.1491 2.9763,-13.2906 4.7938,-0.9164 9.1997,2.617 9.2577,7.4242 0.075,6.1956 -7.3124,9.7378 -12.234,5.8664 z m 574.76578,39.9769 c 5.6784,-0.9379 -30.72518,-1.4987 -114.99978,-1.7715 l -72.9997,-0.2363 -13.5132,-13.4873 -13.5132,-13.4874 -42.4871,0.01 c -42.3952,0.01 -54.3687,0.4995 -51.8072,2.1236 0.7261,0.4604 21.8014,0.844 46.834,0.8524 l 45.5139,0.015 13.4861,13.5277 13.4862,13.5276 93,-0.206 c 51.15,-0.1134 94.79998,-0.5034 96.99998,-0.8668 z m -659.85578,-6.3529 c 5.013,-4.312 3.0587,-12.4834 -3.3716,-14.0973 -3.4018,-0.8538 -7.6858,1.0027 -9.3079,4.0337 -1.1384,2.1271 -1.9983,2.434 -6.8187,2.434 h -5.5159 l -8.6863,-8.5 -8.6863,-8.5 h -25.9038 -25.9038 l -7.4499,-7.5 -7.45,-7.5 h -32.7252 -32.7253 l -3.7835,4.5263 c -3.6456,4.3613 -3.9367,4.5032 -7.9905,3.8953 -3.6399,-0.5458 -4.5522,-0.2859 -6.7663,1.9283 -6.5424,6.5424 0.027,17.1351 8.4608,13.6418 3.6928,-1.5296 5.3827,-5.0282 4.6768,-9.6824 -0.5145,-3.3929 -0.1594,-4.2739 3.2486,-8.0593 l 3.8263,-4.25 h 31.2959 31.2958 l 8.1961,8 8.1961,8 h 25.3071 25.3071 l 8.6863,8.5 8.6863,8.5 h 5.9598 c 5.2663,0 6.1092,0.2791 7.2433,2.3983 2.589,4.8375 8.4679,5.8705 12.6987,2.2313 z m 670.85578,-4.6918 c 1.1,-0.4461 -11.05,-0.8406 -26.99998,-0.8768 -15.95,-0.036 -61.4,-0.3416 -101,-0.6788 l -72,-0.6131 -12.1405,-12.0103 -12.1405,-12.0103 -43.2964,0.1806 c -23.9956,0.1001 -43.9931,0.5884 -44.8595,1.0954 -1.0481,0.6133 1.0729,0.9597 6.4369,1.0514 4.4,0.075 11.15,0.2451 15,0.3777 3.85,0.1326 20.1322,0.3098 36.1827,0.3938 l 29.1827,0.1526 12.6464,12.6098 12.6464,12.6097 99.1709,-0.7354 c 54.544,-0.4044 100.07088,-1.1003 101.17088,-1.5463 z m -435.99998,-11.9378 11.9687,-12 h 51.2066 c 33.0591,0 51.4257,-0.3544 51.8247,-1 0.409,-0.6618 -17.0784,-1 -51.7073,-1 h -52.3254 l -11.4673,11.5 -11.4674,11.5 h -18.1023 -18.1022 l -6.6641,-6.9027 c -7.6618,-7.9363 -8.2427,-10.2333 -3.322,-13.1366 5.4901,-3.2392 7.0689,-8.7636 3.9927,-13.9712 -2.8306,-4.7917 -8.0754,-6.2092 -13.1897,-3.5645 -6.989,3.6142 -6.4865,14.5341 0.8078,17.5555 2.4714,1.0237 3.0472,1.8491 3.0472,4.3687 0,2.5368 1.4171,4.5321 7.7265,10.8787 l 7.7265,7.7721 h 18.0391 18.0391 z m -68.484,-15.7067 c -3.7043,-4.7093 -0.1441,-11.6266 5.984,-11.6266 6.128,0 9.6882,6.9173 5.9839,11.6266 -1.6566,2.106 -2.9847,2.7067 -5.9839,2.7067 -2.9993,0 -4.3274,-0.6007 -5.984,-2.7067 z m 521.43848,3.2522 c -2.9986,-2.9987 -3.1037,-5.4505 -0.3819,-8.9106 3.5526,-4.5164 9.2584,-3.0699 11.6247,2.9471 0.6334,1.6105 1.33,1.8908 3.3027,1.3292 2.3067,-0.6568 2.3303,-0.7195 0.3046,-0.8115 -1.3485,-0.061 -2.7023,-1.1571 -3.5091,-2.8406 -1.908,-3.9808 -6.1329,-5.7762 -9.9106,-4.2114 -1.6311,0.6756 -3.5511,2.3457 -4.2666,3.7114 l -1.301,2.4829 -90.40868,-0.1636 -90.4086,-0.1635 -13.6324,-13.5766 -13.6324,-13.5767 -42.5597,0.3946 c -23.4078,0.217 -42.8857,0.7206 -43.2842,1.1192 -0.3986,0.3985 -0.4499,0.9994 -0.1141,1.3352 0.3358,0.3358 19.6483,0.8061 42.9166,1.0452 l 42.3062,0.4347 13.0375,12.9789 13.0376,12.9789 91.2356,-0.073 91.23558,-0.073 2.5658,3.0492 c 1.4111,1.677 2.9552,3.0492 3.4313,3.0492 0.4761,0 -0.2389,-1.1046 -1.5889,-2.4546 z m -361.88468,-24.5748 12.1678,-12.0293 23.7652,0.095 c 15.6145,0.063 24.1308,-0.2703 24.8312,-0.9707 0.7546,-0.7546 -6.3723,-1.066 -24.4004,-1.066 h -25.4663 l -11.4673,11.5 -11.4674,11.5 h -35.0384 -35.0384 l -8.4558,-8.5 -8.4559,-8.5 h -27.0365 -27.0365 l -12.9711,-13 -12.9712,-13 h -7.0233 -7.0234 l -20.9821,-20.99997 -20.9822,-21 h -14.9803 -14.9803 l -22.0795,22 -22.0795,21.99997 h -26.7879 -26.7879 l -7.1218,-6.5 -7.1219,-6.49997 h -18.0644 -18.0644 l -7.4499,-7.5 -7.45,-7.5 h -8.0873 -8.0873 l -15.3113,-15.5 c -12.8633,-13.02179 -15.7819,-15.5 -18.2549,-15.5 -2.0686,0 -3.9247,-1.04029 -6.2445,-3.5 -4.0946,-4.34162 -8.439,-4.71666 -12.1102,-1.04545 -4.505,4.50497 -2.5293,11.6285 3.8514,13.8865 2.0533,0.72663 8.6941,-1.73182 8.6941,-3.21859 0,-1.74049 3.0817,-4.12246 5.3335,-4.12246 1.4944,0 7.1095,4.92658 17.6665,15.5 l 15.4758,15.5 h 7.8769 7.8769 l 7.707,7.5 7.707,7.5 h 17.7786 17.7786 l 7.2626,6.49997 7.2627,6.5 h 27.8956 27.8957 l 21.4826,-21.49997 21.4825,-21.5 h 14.9996 14.9996 l 19.7591,19.74062 c 10.8675,10.85735 19.7592,20.08235 19.7592,20.49995 0,0.4177 -1.6824,0.7594 -3.7387,0.7594 -3.4898,0 -4.7723,-1.0321 -19.2712,-15.50979 l -15.5326,-15.50981 -15.8725,-0.0882 -15.8725,-0.0882 -22.1144,22.098 -22.1145,22.098 h -46.0207 -46.0207 l -6.4422,6.5 -6.4423,6.5 h -35.5215 -35.5215 l -24.7574,-24.7425 c -23.1335,-23.11958 -24.7573,-24.97749 -24.7573,-28.32566 0,-5.39487 -3.9096,-8.46418 -10.25,-8.04696 -3.1581,0.2078 -5.75,3.83322 -5.75,8.04257 0,6.62701 6.1241,9.72609 13.152,6.65556 1.2576,-0.54946 7.6369,5.26359 26.7192,24.34759 l 25.067,25.0694 h 35.7052 35.7051 l 7.2192,-7 7.2191,-7 h 46.0946 46.0946 l 22.0015,-22 22.0015,-21.99997 h 14.7726 14.7726 l 15.2443,15.26823 c 14.1002,14.12224 15.143,15.41694 13.8934,17.25004 -3.7438,5.4915 -2.0705,12.3655 3.6773,15.1064 4.1498,1.9789 7.8445,1.2825 11.2469,-2.1199 3.158,-3.158 3.3988,-10.3035 0.4374,-12.9834 -2.8699,-2.5973 -1.6359,-3.5214 4.7025,-3.5214 h 5.6081 l 13.1286,13 13.1287,13 h 26.9751 26.9752 l 8.9583,9 8.9583,9 h 34.9719 34.9719 z m -203.5698,-16.9707 c -4.2884,-4.2883 -0.6027,-13 5.5,-13 3.4782,0 7.5,4.1644 7.5,7.766 0,6.3548 -8.4694,9.7647 -13,5.234 z m -204,17.5 6.4422,-6.5 h 53.2508 53.2508 l 16.0562,-16 16.0561,-16 h 12.1743 12.1743 l 3.257,3.1568 c 2.9496,2.8588 3.2019,3.5593 2.6726,7.4205 -0.5038,3.676 -0.2288,4.6191 1.9952,6.8432 6.5458,6.5458 16.8204,-0.3392 13.2518,-8.88 -1.5809,-3.7836 -3.6439,-4.7358 -9.5106,-4.3897 -3.3991,0.2006 -4.6169,-0.2878 -7.369,-2.9552 l -3.297,-3.1956 h -13.4641 -13.4641 l -15.9765,16 -15.9766,16 h -53.2207 -53.2207 l -6.6948,6.5 -6.6948,6.5 h -35.4912 -35.4912 l -10.162,-10 -10.1621,-10 h -5.1256 c -4.3043,0 -5.2308,-0.3315 -5.7822,-2.069 -0.844,-2.6592 -6.1911,-5.9224 -9.7124,-5.9272 -1.6077,0 -4.0703,1.19 -5.9772,2.8939 -2.6838,2.3979 -3.2431,3.6228 -3.2431,7.1023 0,3.4796 0.5593,4.7044 3.2431,7.1024 1.7836,1.5937 4.3833,2.8976 5.7769,2.8976 4.1055,0 8.4802,-2.8649 10.0268,-6.5664 1.3156,-3.1488 1.7876,-3.4336 5.6899,-3.4336 4.0593,0 4.7144,0.4608 14.2179,10 l 9.9624,10 h 37.0477 37.0476 z m -124.3652,-7.5726 c -2.0323,-1.5986 -2.6348,-2.954 -2.6348,-5.9274 0,-2.9734 0.6025,-4.3287 2.6348,-5.9274 1.4492,-1.1399 3.228,-2.0726 3.953,-2.0726 2.8448,0 6.3341,2.3975 7.4659,5.1297 1.527,3.6866 -0.1491,8.1371 -3.6684,9.7406 -3.4713,1.5817 -4.7368,1.4277 -7.7505,-0.9429 z m 622.8652,-18.9274 c 13.8401,-13.8667 13.94,-13.999 10.4866,-13.9003 -1.9177,0.055 -4.6116,0.46 -5.9866,0.9003 -2.3985,0.7681 -2.4086,0.8047 -0.25,0.9003 1.2375,0.055 2.25,0.6549 2.25,1.3334 0,0.6785 -4.8299,6.0785 -10.733,12 -9.192,9.2206 -11.1935,10.7663 -13.941,10.7663 -1.7644,0 -3.4861,0.45 -3.826,1 -0.3757,0.6078 1.0774,1 3.7043,1 4.2254,0 4.6363,-0.3144 18.2957,-14 z m 198.4802,5.5875 8.5198,-8.4125 51.64118,-0.4492 51.6411,-0.4492 6.1089,5.4416 c 3.3598,2.9929 6.1088,5.1472 6.1088,4.7875 0,-0.3598 -2.5435,-3.3207 -5.6522,-6.5799 l -5.6522,-5.9258 h -53.1199 -53.11988 l -8.4558,8.5 -8.4559,8.5 h -64.997 -64.997 l -6.6897,-6.6385 c -6.1301,-6.0831 -6.6448,-6.9158 -6.1518,-9.9536 0.4463,-2.7501 0.019,-3.8343 -2.5084,-6.3615 -3.7725,-3.7725 -7.9663,-4.01181 -11.8445,-0.676 -5.8076,4.9956 -2.1076,14.6296 5.6186,14.6296 1.9941,0 4.153,-0.5274 4.7976,-1.1719 0.8959,-0.8959 2.8745,0.5172 8.4009,6 l 7.229,7.1719 h 66.5293 66.5293 z m -5.1985,-11.798 10.7183,-10.61303 21.5,-0.56729 c 11.82498,-0.31201 41.29998,-0.66418 65.49998,-0.78259 24.2,-0.11841 47.825,-0.46236 52.5,-0.76433 14.0672,-0.90864 -16.8253,-1.61167 -82.3808,-1.87476 l -57.88088,-0.2323 -11.1719,11.0224 -11.1718,11.0224 h -49.1973 c -41.7781,0 -49.1973,0.2137 -49.1973,1.4167 0,0.7792 0.4504,1.5667 1.0009,1.75 0.5506,0.1833 23.0649,0.3114 50.0318,0.2846 l 49.0308,-0.049 10.7182,-10.6131 z m -0.5319,-9.5395 10.7826,-10.74997 12.2338,-0.20871 c 6.7285,-0.1148 39.68378,-0.29778 73.23378,-0.40664 33.55,-0.10886 62.8,-0.47586 65,-0.81556 4.1178,-0.63582 -84.0035,-2.06624 -127.40358,-2.06806 l -24.4035,-10e-4 -11.1492,11 -11.1491,11.00004 h -48.1973 c -42.1754,0 -48.1973,0.1874 -48.1973,1.5 0,1.313 6.137,1.5 49.2336,1.5 h 49.2337 z m -613.2298,3.2397 c 5.8974,-3.0497 6.9101,-10.7134 2.0569,-15.56659 -4.9844,-4.98435 -13.5728,-3.00951 -16.1269,3.70824 -0.799,2.10169 -1.5306,2.36868 -6.4907,2.36868 h -5.5903 l -12.8149,-12.25 -12.8149,-12.25 -0.1196,-19.10003 -0.1196,-19.10004 -5.9745,-5.19645 c -5.9307,-5.15836 -5.9701,-5.22853 -5.375,-9.57041 0.521,-3.80143 0.2618,-4.71158 -1.9801,-6.95351 -5.3006,-5.30067 -13.6704,-1.98198 -13.6704,5.42044 0,5.48954 3.5416,8.42448 9.3728,7.76722 4.2896,-0.4835 4.648,-0.30898 9.5421,4.64665 l 5.0851,5.14902 v 18.30318 18.30319 l 13.75,13.37755 13.75,13.37756 6.1512,0.0378 c 5.9631,0.0367 6.2148,0.14564 8.2312,3.56308 3.1185,5.28562 7.8321,6.70792 13.1376,3.96442 z m -10.02,-3.48967 c -4.2884,-4.28837 -0.6027,-13 5.5,-13 3.4782,0 7.5,4.16439 7.5,7.76598 0,6.35479 -8.4694,9.76469 -13,5.23402 z m 426.0125,3.48487 c 1.0877,-1.3106 -6.3257,-1.4849 -63.15,-1.4849 h -64.3823 l -18.9802,-18.99997 -18.9803,-19 h -71.4985 -71.4985 l -15.5577,-15.5349 -15.5577,-15.53489 -5.9537,-0.0785 c -7.7183,-0.1018 -9.2201,-0.54058 -9.9734,-2.9138 -0.8361,-2.63434 -6.012,-5.21306 -8.7802,-4.37447 -6.6548,2.01597 -8.8808,9.34679 -4.2455,13.98204 3.6712,3.67121 8.0156,3.29617 12.1102,-1.04545 3.0969,-3.28365 3.6922,-3.5 9.6302,-3.5 h 6.3293 l 15.4758,15.5 15.4758,15.5 h 71.5217 71.5217 l 19.4805,19.49977 19.4806,19.49977 63.1499,-0.015 c 54.6154,-0.013 63.3165,-0.2156 64.3823,-1.4998 z m 185.5875,-3.88487 c 5.0973,-5.09738 4.3147,-11.80726 -1.8251,-15.64735 -5.4227,-3.39154 -13.4634,-0.66033 -15.3251,5.20552 -0.5606,1.7661 -3.475,1.84183 -70.8777,1.84183 -38.6611,0 -72.4136,0.29066 -75.0055,0.64592 -12.9297,1.77221 3.9759,2.32471 71.562,2.33877 l 73.6287,0.0153 1.2594,3.0404 c 1.4996,3.62038 5.2275,5.86448 9.8333,5.91958 2.5077,0.03 4.2048,-0.8148 6.75,-3.35998 z m -11.2633,-1.07667 c -4.7719,-3.34236 -3.6326,-10.84441 1.8737,-12.33789 3.8454,-1.04297 6.1215,-0.13461 8.4084,3.35564 1.3361,2.0391 1.4116,2.97111 0.4324,5.3351 -1.1155,2.69322 -4.6144,5.12382 -7.3758,5.12382 -0.6767,0 -2.1791,-0.6645 -3.3387,-1.47667 z m -163.3617,-5.99324 c 1.0712,-1.29079 -7.3514,-1.47386 -69.1198,-1.50236 l -70.3397,-0.0325 -17.5179,-17.49759 -17.5179,-17.49764 h -59.8412 -59.8412 l -40.1083,-40 c -37.6836,-37.58179 -40.3223,-40 -43.6487,-40.00003 -2.8475,-2e-5 -4.0869,-0.68498 -6.333,-3.5 -2.2727,-2.84839 -3.4708,-3.49997 -6.4355,-3.49997 -7.5679,0 -11.1115,8.25122 -5.8173,13.54545 3.6712,3.67121 8.0156,3.29617 12.1102,-1.04545 6.2551,-6.63234 4.5165,-7.92913 48.9353,36.5 l 39.9906,40 h 59.9491 59.9491 l 18.0556,17.99256 18.0556,17.99255 69.1275,0.007 c 59.6041,0.006 69.2956,-0.19506 70.3475,-1.46247 z m 151.3538,-11.70114 c 2.5691,-2.56908 4.6712,-4.93158 4.6712,-5.25 0,-0.87553 -129.2043,-0.55405 -131.4572,0.32709 -3.928,1.53627 14.3445,2.09396 68.608,2.09396 30.167,0 54.8492,0.36 54.8492,0.8 0,3.05517 -2.7301,3.20055 -61.95,3.2989 -32.7525,0.0544 -62.025,0.42307 -65.05,0.81929 -15.0131,1.96644 5.1463,2.58181 84.5788,2.58181 h 41.0787 z m -189.4784,-1.17653 c 4.0661,-4.14313 4.4905,-4.32607 9.025,-3.89037 6.2307,0.5987 9.9863,-2.31275 10.799,-8.37177 0.4778,-3.56237 0.1519,-4.55307 -2.4595,-7.47571 -2.5143,-2.81401 -3.7031,-3.36912 -7.2149,-3.36912 -3.4796,0 -4.7044,0.55929 -7.1024,3.24305 -3.1671,3.54459 -3.5245,5.83605 -1.698,10.88695 1.1332,3.134 1.0118,3.5112 -2.1962,6.821 l -3.3958,3.50355 h -48.5645 -48.5646 l -17.4785,-17.5 -17.4786,-17.5 h -59.9696 -59.9695 l -27.7912,-27.72618 -27.7911,-27.72618 v -5.77382 c 0,-4.33514 0.3556,-5.77382 1.4274,-5.77382 2.0638,0 5.5726,-4.85572 5.5726,-7.71178 0,-5.63255 -8.7645,-10.32491 -13.0867,-7.00642 -4.8377,3.71431 -5.0009,8.95638 -0.4133,13.28297 3.0575,2.88364 3.5,3.90908 3.5,8.11172 v 4.8108 l 28.7435,28.75635 28.7435,28.75636 h 60.0169 60.0169 l 17.9792,18 17.9791,18 h 48.5522 48.5522 z m 6.0629,-6.93422 c -6.1707,-4.73774 -3.4415,-13.7182 4.1691,-13.7182 6.9875,0 10.3308,7.67762 5.463,12.54545 -2.6623,2.66227 -7.0036,3.19084 -9.6321,1.17275 z m 15.5407,-21.16919 -28.954,-28.4429 -15.0376,-0.0531 -15.0376,-0.0531 -4.9248,5 c -4.8222,4.89575 -5.0498,5 -10.9168,5 h -5.9918 l -13.1287,-13 -13.1286,-13 h -29.8018 -29.8017 l -9.3653,9.18422 c -5.151,5.05132 -9.3653,9.55132 -9.3653,10 0,0.44868 13.6552,0.81578 30.345,0.81578 34.7757,0 33.6648,-0.27795 33.3381,8.34117 -0.1581,4.17136 0.2002,5.16126 2.6226,7.24515 3.7533,3.22879 7.1958,3.06598 10.7712,-0.5094 3.8303,-3.8303 3.7962,-7.35761 -0.1088,-11.26261 -2.7289,-2.72888 -3.4598,-2.96767 -7.3147,-2.38959 -3.5413,0.53105 -4.6015,0.29017 -6.1231,-1.39123 -1.7665,-1.95191 -2.9575,-2.03349 -29.6853,-2.03349 -15.3148,0 -27.845,-0.32621 -27.845,-0.7249 0,-0.3987 3.0254,-3.7737 6.7231,-7.5 l 6.7232,-6.7751 h 29.0418 29.0419 l 12.47,12.5 12.4699,12.5 h 7.4184 7.4184 l 5.2868,-5 5.2867,-5 h 13.8165 13.8164 l 28.4651,28.47828 c 18.6354,18.64397 28.8044,28.13907 29.4475,27.49596 0.6431,-0.6431 -9.0163,-10.80443 -27.9717,-29.42523 z m 2.5238,-10.07113 -32.4663,-32.47788 h -18.7367 -18.7367 l -0.6037,-2.40517 c -1.0258,-4.0872 -5.0569,-7.04938 -9.5932,-7.04938 -5.2977,0 -9.8412,4.63864 -9.8412,10.04725 0,5.24993 4.4436,9.4073 10.055,9.4073 3.5147,0 4.7532,-0.57724 7.5097,-3.5 l 3.301,-3.5 h 18.4873 18.4873 l 31.3136,31.96623 c 20.6296,21.05956 31.6508,31.62901 32.3019,30.97788 0.6512,-0.65113 -10.0889,-12.06959 -31.478,-33.46623 z m -84.9524,-26.45244 c -3.1108,-3.11076 -3.5971,-6.78093 -1.3068,-9.86249 3.6882,-4.96258 12.2199,-3.52836 13.6827,2.30015 1.7509,6.97593 -7.3818,12.55646 -12.3759,7.56234 z m 123.9746,52.47456 c 1.0023,-1.20778 0.981,-1.5 -0.1098,-1.5 -0.745,0 -17.8017,-16.425 -37.9038,-36.5 l -36.5492,-36.5 h -75.8827 -75.8827 l -12.6332,12.5 -12.6332,12.5 h -26.4213 -26.4213 l -5.2814,-5.21584 -5.2814,-5.21584 V 340.2529 305.20832 l -17.7602,-17.73958 -17.7601,-17.73958 h -4.7047 c -3.8571,0 -4.9206,-0.40533 -5.9032,-2.25 -2.2725,-4.26625 -6.7324,-5.89193 -11.327,-4.12882 -1.9142,0.73454 -4.5448,5.47756 -4.5448,8.1943 0,2.75499 3.5461,6.86461 6.393,7.40883 3.534,0.67555 8.4696,-1.73271 9.5898,-4.67924 0.8279,-2.1776 1.5834,-2.54507 5.232,-2.54507 4.1867,0 4.5785,0.31377 21.5247,17.23928 l 17.2605,17.23929 v 34.98381 34.98381 l 6.2211,6.2769 6.2211,6.27691 h 26.5439 26.5439 l 12.47,-12.5 12.4699,-12.5 75.515,2.3e-4 75.5151,2.3e-4 36.5,36.48127 c 20.075,20.0647 36.7824,36.4896 37.1275,36.49977 0.3452,0.0102 1.1878,-0.6565 1.8725,-1.4815 z m 321.49998,0.62126 c 15.2951,-0.25904 21.66,-0.66028 19,-1.19776 -4.9571,-1.00163 -328.04468,-1.1719 -331.49998,-0.17471 -2.2701,0.65513 -2.1321,0.78029 1.5,1.36076 4.2058,0.67216 271.40828,0.68222 310.99998,0.0117 z M 813.00992,425.60845 c 0.2988,-0.48361 -1.7325,-0.87929 -4.5142,-0.87929 h -5.0577 l -35.8631,-35.5 -35.8632,-35.5 h -79.3393 -79.3393 l -12.1381,12 -12.1381,12 h -21.3765 -21.3764 l -4.7844,-4.71241 -4.7843,-4.71241 v -35.54931 -35.54931 l -16,-15.97656 c -14.8911,-14.86927 -17.5549,-18.421 -15,-20 0.55,-0.33992 1,-2.42609 1,-4.63594 0,-11.85084 -16.9507,-13.47125 -19.5,-1.86412 -1.3688,6.23192 5.5556,12.72264 12.1878,11.42449 2.5604,-0.50117 4.2668,0.91601 19.0622,15.83109 l 16.25,16.38153 v 35.40003 35.40003 l 5.2158,5.28144 5.2158,5.28145 h 22.5498 22.5498 l 11.9688,-12 11.9687,-12 h 78.5209 78.5209 l 35.4408,35.45132 c 31.9519,31.96141 35.7906,35.48073 38.9947,35.75 4.2079,0.35364 6.879,-0.10928 7.6286,-1.32203 z M 451.43532,261.72916 c -2.9777,-2.97766 -2.6667,-8.33043 0.6348,-10.92742 3.4953,-2.74937 6.9109,-2.61773 9.9106,0.38197 2.9997,2.99969 3.1313,6.41533 0.382,9.91059 -2.597,3.30154 -7.9498,3.61252 -10.9274,0.63486 z m 483.4348,157.07338 c 8.7994,-8.8482 8.9966,-8.9767 13,-8.47439 8.3121,1.04292 14.2759,-6.56881 11.1007,-14.16807 -1.4292,-3.42071 -5.8927,-6.43092 -9.5355,-6.43092 -2.9345,0 -7.7425,2.65022 -8.9704,4.94461 -1.2885,2.40755 -1.3374,8.61188 -0.086,10.94956 0.7708,1.44029 -0.5552,3.23574 -7.25,9.81671 l -8.1934,8.05403 -51.3112,0.59637 c -47.9081,0.55682 -62.6847,1.39484 -47.1888,2.67621 3.575,0.29562 27.425,0.64613 53,0.77891 l 46.5,0.24142 8.9349,-8.98444 z m 10.2,-13.14596 c -5.2566,-4.13485 -2.3636,-12.26075 4.3652,-12.26075 6.7287,0 9.6217,8.1259 4.3651,12.26075 -1.4492,1.13992 -3.4135,2.07258 -4.3651,2.07258 -0.9517,0 -2.916,-0.93266 -4.3652,-2.07258 z m 214.94918,17.82258 c 0.4121,-0.4125 -5.2882,-0.75126 -12.6673,-0.7528 -7.3792,-0.002 -41.0917,-0.27733 -74.9167,-0.61287 l -61.5,-0.61006 -31.50578,-31.38714 -31.5058,-31.38713 h -15.5076 -15.5076 l -13.9732,14 -13.9733,14 h -11.1238 c -13.0697,0 -21.1704,0.89772 -19.2259,2.13061 0.7276,0.46132 8.079,0.84566 16.3364,0.85408 l 15.0133,0.0153 13.9733,-14 13.9732,-14 h 14.0193 14.0194 l 31.4448,31.45677 c 17.2947,17.30122 32.36708,31.58872 33.49408,31.75 4.5195,0.64673 148.4362,-0.75908 149.1332,-1.45677 z m -336.58398,-8.25 c 1.0873,-1.31021 0.3144,-1.5 -6.109,-1.5 h -7.3539 l -35.0512,-35 -35.0513,-35 h -97.0068 -97.0069 l -16.2105,-16.31852 -16.2104,-16.31853 v -14.44537 -14.44537 l -13.5,-13.47221 -13.5,-13.47221 v -9.98699 -9.98699 l -6.2212,-6.2769 -6.2211,-6.27691 h -20.0664 -20.0665 l -4.9248,5 c -6.0174,6.10918 -9.4672,6.62125 -13.4272,1.99303 -1.4358,-1.67801 -3.9915,-3.27658 -5.7828,-3.61699 -2.6804,-0.50938 -3.7114,-0.10851 -6.25,2.43005 -3.9135,3.91347 -3.95,7.43776 -0.117,11.27083 4.0143,4.0143 7.4733,3.84289 11.6417,-0.57692 2.4113,-2.55671 4.1476,-3.5 6.4423,-3.5 2.4422,0 4.4249,-1.22424 8.9076,-5.5 l 5.7662,-5.5 h 18.5073 18.5074 l 5.6522,5.92576 5.6523,5.92577 v 10.15483 10.15484 l 13.5,13.53909 13.5,13.53909 v 14.11989 14.11988 l 17.2392,17.26043 17.2393,17.26042 h 96.5161 96.5161 l 34.9893,35 34.9892,35 h 6.633 c 4.6759,0 7.0002,-0.44255 7.8778,-1.5 z m 88.939,-13.4056 14.786,-14.90559 -0.2339,-8.34441 c -0.1287,-4.58942 -0.2918,-8.55161 -0.3626,-8.80488 -0.071,-0.25326 -7.4719,6.83424 -16.4471,15.75 l -16.3185,16.21048 -24.4315,0.0153 c -13.4373,0.008 -25.0242,0.39116 -25.7486,0.85053 -2.1294,1.35027 9.3312,2.13417 31.2013,2.13417 h 20.0908 l 14.2625,-14.23707 14.2626,-14.23706 v 4.97412 4.97412 l -13.7366,13.76295 -13.7367,13.76294 -30.5133,0.0136 c -16.7824,0.008 -31.6384,0.32775 -33.0134,0.71163 l -2.5,0.69797 3,0.67006 c 1.65,0.36853 16.8719,0.7233 33.8264,0.78838 l 30.8265,0.11836 z m -76.974,1.44775 c 1.1433,-1.37764 -0.2887,-1.54215 -13.4245,-1.54215 h -14.7043 l -33.7477,-33.5 -33.7477,-33.5 h -92.8935 -92.8935 l -6.2769,-6.22111 c -5.4826,-5.43384 -6.2769,-6.69608 -6.2769,-9.97432 0,-3.12371 0.4828,-4.0029 2.8788,-5.2419 1.5833,-0.81879 3.1583,-2.21715 3.5,-3.10747 3.4084,-8.88218 -6.43,-16.49498 -12.9243,-10.00065 -4.066,4.06602 -3.2389,10.57137 1.6666,13.10812 2.5592,1.3234 2.8789,2.01643 2.8789,6.2419 0,4.51312 0.322,5.07234 6.3748,11.07135 l 6.3748,6.31813 93.3752,0.007 93.3752,0.007 33.5,33.28207 c 18.425,18.30513 34.175,33.49889 35,33.76392 0.825,0.26502 7.1666,0.56029 14.0925,0.65614 10.2766,0.14223 12.828,-0.10935 13.8725,-1.36787 z m 15.035,-15.04215 c 1.1001,-1.32564 -1.4139,-1.50651 -21.6276,-1.55596 l -22.8724,-0.056 -38.5,-37.41452 -38.5,-37.41452 -29.3566,-0.0295 -29.3566,-0.0295 -7.2191,-7 -7.2192,-7 h -18.6966 -18.6966 l -4.4777,-4.12736 c -4.3937,-4.04999 -4.4776,-4.24556 -4.4776,-10.43261 0,-5.39922 0.2836,-6.39528 1.9739,-6.93175 3.1144,-0.98848 6.0261,-5.438 6.0261,-9.20888 0,-4.49418 -1.392,-6.93359 -5.0297,-8.81473 -2.49,-1.28765 -2.9703,-2.14043 -2.9703,-5.27375 0,-3.47358 -0.9894,-4.72518 -14,-17.71092 l -14,-13.97321 v -11.22821 c 0,-10.62229 0.1214,-11.29289 2.25,-12.42674 3.291,-1.75306 4.6823,-3.96787 4.7182,-7.51106 0.043,-4.23077 -2.6925,-7.29744 -7.1448,-8.01011 -8.689,-1.39086 -12.5644,11.14631 -4.7023,15.212 l 2.8789,1.48869 v 12.23772 12.23771 l 14,13.97321 c 15.7383,15.70819 16.3551,16.98815 10.0927,20.94146 -6.9103,4.36229 -7.5534,11.81017 -1.4174,16.41633 1.5535,1.16625 3.3872,2.59308 4.0747,3.17075 0.7298,0.61324 1.25,3.41239 1.25,6.72654 0,5.42177 0.2112,5.89069 4.7124,10.46057 l 4.7124,4.78435 h 19.0644 19.0644 l 6.9464,7 6.9463,7 h 29.3194 29.3194 l 39.2074,37.96232 39.2075,37.96232 21.6275,0.0377 c 18.0369,0.0314 21.8342,-0.21137 22.8725,-1.46234 z M 602.10212,272.91354 c -0.9037,-0.99859 -1.9261,-3.23056 -2.272,-4.95993 -0.5243,-2.62163 -0.1235,-3.64968 2.4112,-6.18439 3.5693,-3.5693 6.8673,-3.87148 10.5591,-0.96748 3.3616,2.64428 3.693,8.86929 0.6349,11.92742 -2.607,2.60699 -9.0459,2.71175 -11.3332,0.18438 z m 276.3332,87.31562 c 1.1027,-1.32873 -2.9756,-1.5 -35.7191,-1.5 h -36.9639 l -6.1585,-6.41345 -6.1585,-6.41344 v -25.34215 -25.34215 l -33.5,-33.48881 -33.5,-33.48881 v -12.99889 -12.9989 l -27.2432,-27.2567 -27.2432,-27.2567 h -21.4924 -21.4924 l -12.2644,-12.23499 -12.2644,-12.235 v -13.19762 c 0,-11.941583 0.1752,-13.253253 1.8418,-13.782193 3.7277,-1.18314 6.4309,-5.25766 6.4309,-9.69337 0,-3.51062 -0.5536,-4.71862 -3.2782,-7.15304 -2.8286,-2.52737 -3.8414,-2.85354 -7.3848,-2.37827 -5.3039,0.7114 -8.6097,4.36204 -8.6097,9.50773 0,4.52848 1.9205,7.47699 5.9601,9.15025 l 3.0399,1.25914 v 13.614783 13.61477 l 12.7355,12.76391 12.7356,12.7639 h 21.5391 21.5391 l 26.7253,26.79265 26.7254,26.79264 v 13.46295 13.46295 l 33.5,33.48881 33.5,33.48881 v 24.98208 24.98208 l 7.2249,7.27351 7.225,7.27352 h 35.6526 c 30.4712,0 35.8335,-0.21799 36.8975,-1.5 z M 599.19802,93.187357 c -5.083,-2.80164 -4.9089,-10.29705 0.3017,-12.99154 5.1992,-2.68861 10.9356,0.49941 10.9356,6.07754 0,6.21329 -5.9107,9.84997 -11.2373,6.914 z m 303.0887,262.191723 6.2936,-6.35008 -3.1981,-2.69102 c -3.583,-3.01488 -5.2681,-2.7262 -2.425,0.41543 1.8111,2.00123 1.7595,2.12133 -2.9782,6.93138 -4.0466,4.10834 -5.6026,5.00232 -9.6835,5.56359 -6.0396,0.83066 -5.3893,2.48078 0.9777,2.48078 4.4702,0 5.0527,-0.33586 11.0135,-6.35008 z m -42.8514,-9.14992 5.4316,-5.5 h -19.6444 -19.6444 l -4.5714,-4.38005 c -3.2357,-3.1002 -4.5994,-5.21863 -4.6671,-7.25 -0.053,-1.57847 -0.1658,-14.00073 -0.2514,-27.60502 l -0.1558,-24.73507 -11.2486,-11.28058 -11.2485,-11.28057 V 223.2039 192.20993 l -19.5183,-19.49039 -19.5182,-19.49038 0.2682,-17 0.2683,-17 10,-0.28269 10,-0.2827 8.75,-8.69646 8.75,-8.69645 V 89.314457 c 0,-10.83823 0.1999,-12.16929 2.1385,-14.23274 1.8154,-1.93246 2.8027,-2.18529 6.5356,-1.67364 3.6744,0.50363 4.7883,0.23521 6.7769,-1.63294 3.1858,-2.99292 3.9161,-6.43539 2.1072,-9.93343 -1.6947,-3.27712 -3.3335,-4.11255 -8.0675,-4.11255 -4.8603,0 -7.8803,4.06782 -7.1277,9.60082 0.4906,3.60702 0.2013,4.44236 -2.4026,6.93709 -2.9596,2.8355 -2.9604,2.83955 -2.9604,14.87705 v 12.040793 l -7.7266,7.77213 -7.7265,7.77212 h -10.7735 -10.7734 v 18.75962 18.75961 l 19.5,19.48077 19.5,19.48077 v 31.52667 31.52667 l 11,10.96589 11,10.96589 v 27.05122 27.05121 l 5.3782,5.31148 5.3783,5.31149 13.8717,-0.0227 c 7.6295,-0.0125 15.1505,0.21431 16.7134,0.50395 l 2.8417,0.5266 -2.7788,2.90041 -2.7787,2.90041 h -17.5378 -17.5379 l -6.775,-6.72318 -6.7751,-6.72318 v -26.14489 -26.14489 l -32.5023,-32.38189 -32.5022,-32.38193 V 204.72258 190.216 l -28.2564,-28.24342 -28.2565,-28.24342 h -23.5431 c -25.1691,0 -26.6841,-0.28049 -24.7262,-4.57761 1.4608,-3.20621 -0.6629,-8.08431 -4.3496,-9.99077 -8.1701,-4.22495 -15.8346,6.69243 -9.2917,13.23532 2.178,2.17806 3.2337,2.50189 6.8334,2.09616 2.7026,-0.30463 4.9358,0.0162 6.1151,0.87851 1.4409,1.0536 7.1491,1.35839 25.4408,1.35839 h 23.5831 l 27.2258,27.29189 27.2258,27.2919 v 14.43819 14.43818 l 32.5,32.555 32.5,32.555 v 25.94141 25.9414 l 7.2249,7.27351 7.225,7.27352 h 19.0592 19.0592 z m 34.6673,-11.42453 -4.6673,-4.98979 v -16.81966 -16.81966 l -7,-6.94636 -7,-6.94636 v -17.92626 -17.92627 l -10.3871,-10.60055 c -9.3113,-9.50269 -10.281,-10.82979 -9.3635,-12.81396 2.4883,-5.38098 -4.8126,-12.54377 -10.5588,-10.35907 -2.1262,0.80837 -3.1174,0.19571 -8.5479,-5.28347 -7.5278,-7.59531 -8.0617,-10.6129 -2.6427,-14.93669 4.424,-3.52992 4.8441,-8.45411 1.0454,-12.25282 -5.112,-5.11206 -13.5454,-1.64082 -13.5454,5.5754 0,3.24115 0.5798,4.34747 3.4999,6.67742 2.9593,2.36125 3.5,3.41535 3.5,6.82393 1e-4,3.59751 0.641,4.66561 5.9568,9.92591 5.7967,5.73617 5.9411,6.00869 5.375,10.13913 -0.5062,3.69275 -0.2302,4.59613 2.1228,6.94911 2.3511,2.35109 3.2579,2.62874 6.9383,2.12429 l 4.2338,-0.5803 9.6867,9.72317 9.6867,9.72317 v 17.50714 17.50714 l 7.549,7.47497 7.549,7.47497 -0.221,17.2911 -0.2209,17.29111 4.8782,4.95264 c 6.6102,6.71112 8.5643,4.91614 2.133,-1.95938 z m -360.4173,-63.12694 c 4.5728,-4.95548 2.7526,-13.54336 -3.2761,-15.45681 -1.7867,-0.56708 -1.9739,-1.54753 -1.9739,-10.338 v -9.7115 l 6.5,-6.44222 6.5,-6.44222 v -11.5414 -11.54139 l -15,-14.97499 -15,-14.97499 v -6.03037 -6.03037 l -10.2671,-10.23214 -10.2671,-10.23213 h -17.0458 -17.0459 l -2.5892,-2.75 c -2.0358,-2.16233 -2.5597,-3.67935 -2.4514,-7.09892 0.1144,-3.61228 -0.335,-4.75562 -2.6536,-6.75 -3.7396,-3.2166 -7.1855,-3.04938 -10.7569,0.522 -3.793,3.79299 -3.793,7.36085 0,11.15384 3.1504,3.15034 4.5257,3.46337 8.5291,1.94127 2.2389,-0.85122 3.095,-0.51871 6.4363,2.5 l 3.854,3.48181 h 16.86 16.86 l 9.2688,9.23025 9.2688,9.23025 v 6.0441 6.0441 l 14.75,14.77764 14.75,14.77764 v 10.91886 10.91887 l -6.25,6.30605 -6.25,6.30605 v 9.70968 9.70967 l -3.4336,1.43464 c -6.2734,2.6212 -8.4277,11.69285 -3.7763,15.90226 4.847,4.38648 10.202,4.2526 14.4599,-0.36153 z m -12.3059,-0.7927 c -4.851,-3.92808 -1.1506,-13.15583 5.2756,-13.15583 3.5391,0 7.7803,3.9901 7.7803,7.31969 0,1.32582 -0.9327,3.59628 -2.0726,5.04545 -2.513,3.19471 -7.5653,3.55843 -10.9833,0.79069 z m -12.9441,-27.92929 v -24.77346 l -8,-7.95308 -8,-7.95308 v -15.08637 -15.08637 l -2.9881,-2.86277 c -2.7901,-2.67308 -2.9471,-3.21195 -2.3687,-8.13272 0.5788,-4.92519 0.4195,-5.46977 -2.435,-8.32432 -2.3728,-2.37274 -3.9341,-3.05437 -6.9965,-3.05437 -10.5967,0 -13.7819,12.86455 -4.5205,18.25729 2.7972,1.62875 3.699,1.70608 7.3031,0.62626 3.9041,-1.16971 4.2469,-1.09684 6.7864,1.44268 2.6571,2.65709 2.6749,2.77291 2.7186,17.67241 l 0.044,14.9978 7.7484,7.7941 7.7484,7.79411 -0.2701,21.95767 -0.27,21.95768 -5.75,-5.72855 -5.75,-5.72854 v -8.65023 -8.65022 l -8.681,-8.87123 -8.681,-8.87123 h -20.8414 -20.8413 l -4.3395,-4 -4.3395,-4 h -14.9045 -14.9045 l -11.4673,11.5 -11.4674,11.5 h -6.2311 c -5.4539,0 -6.3749,-0.28067 -7.3834,-2.25 -3.1994,-6.2477 -11.2016,-7.76877 -16.1134,-3.06291 -5.5538,5.32085 -2.6097,15.16123 4.9695,16.61008 4.322,0.82622 9.0873,-1.72164 10.7752,-5.76118 l 1.4774,-3.53599 h 7.2529 7.2529 l 11.4674,-11.5 11.4673,-11.5 h 13.5634 13.5634 l 3.9059,4 3.9059,4 h 20.5261 20.5262 l 8.2709,8.22792 8.2709,8.22792 v 8.39427 8.39426 l 8.1773,8.37782 c 4.4976,4.60779 8.5476,8.37781 9,8.37781 0.4525,0 0.8227,-11.14806 0.8227,-24.77346 z m -163.8257,-5.54099 c -2.7366,-2.91298 -2.7745,-6.65288 -0.1018,-10.05069 4.2042,-5.34467 12.9275,-1.96715 12.9275,5.00528 0,6.4717 -8.3865,9.77078 -12.8257,5.04541 z m 128.1624,-72.16222 c -2.9089,-2.03746 -3.6933,-5.93315 -1.8949,-9.41078 3.7091,-7.17276 13.9582,-4.68548 13.9582,3.38745 0,6.32242 -6.7935,9.71446 -12.0633,6.02333 z m 303.9133,67.46338 c 3.7517,-4.11775 3.748,-9.14254 -0.01,-12.90017 -1.5178,-1.51779 -3.4243,-2.98118 -4.2367,-3.25197 -1.1988,-0.39958 -1.5017,-3.08875 -1.6074,-14.27073 l -0.13,-13.77837 -18.633,-18.65235 -18.6329,-18.65236 v -22.86257 -22.86256 l -8.1774,-8.377823 -8.1774,-8.37781 h -10.345 -10.3449 l -4.5522,-4.19605 c -4.1583,-3.83295 -4.4965,-4.49287 -3.9087,-7.62629 1.653,-8.81098 -6.6578,-14.38191 -13.1387,-8.80726 -2.0718,1.78215 -2.7557,3.27669 -2.7557,6.02223 0,5.39314 3.1106,8.07999 9.372,8.09529 4.4592,0.0109 5.3627,0.42621 9.2722,4.26208 l 4.3315,4.25 h 9.94 9.94 l 7.7721,7.72654 7.7722,7.726543 v 22.96506 22.96507 l 19,19.09109 19,19.09108 v 12.99807 12.99807 l -2.9123,1.09927 c -3.7787,1.42629 -6.4599,6.54189 -5.6609,10.80076 0.5889,3.13912 3.5565,6.69195 6.5732,7.86933 2.9213,1.14019 7.5359,-0.36536 10.25,-3.34417 z m -12.3059,-0.83088 c -3.0558,-2.47437 -3.0266,-7.37475 0.063,-10.66397 6.4577,-6.87394 16.8372,2.35041 10.9979,9.77392 -2.5917,3.29481 -7.5946,3.69736 -11.0615,0.89005 z m -340.4003,-37.19925 c 5.6258,-5.57585 6.3049,-5.9646 8.7769,-5.02475 7.7976,2.96467 14.1907,-7.51125 8.2247,-13.47728 -5.9652,-5.96523 -16.442,0.42691 -13.4779,8.22318 0.9366,2.46324 0.5566,3.14409 -4.7434,8.5 l -5.7615,5.82227 h -10.5484 -10.5484 l -10.8372,-10.87092 c -9.6841,-9.71427 -10.7197,-11.09045 -9.7329,-12.93426 2.0154,-3.7659 1.2813,-7.21774 -2.2957,-10.79482 -4.9907,-4.99067 -12.1156,-4.17136 -15.175,1.74503 -4.1396,8.00498 2.0685,15.94777 11.2676,14.41629 3.7633,-0.62651 3.9288,-0.5118 14.2895,9.90242 l 10.4821,10.53626 h 11.991 11.9909 z m -61.1798,-17.12617 c -2.1566,-1.04428 -4.364,-4.74769 -4.364,-7.3217 0,-0.76845 1.0537,-2.62228 2.3417,-4.11961 4.2735,-4.96824 11.5535,-2.90252 13.1727,3.73778 0.5188,2.12735 0.01,3.21989 -2.6869,5.74537 -3.5138,3.29309 -4.9976,3.63638 -8.4635,1.95816 z m 192.6913,22.13995 c 2.4253,-1.29798 4.9447,-6.08986 4.9447,-9.40492 0,-1.39364 -1.2804,-3.96682 -2.8452,-5.71818 -2.9712,-3.32531 -6.7692,-4.10614 -12.1597,-2.49988 -2.2428,0.66829 -3.7739,-0.54036 -14.6319,-11.55049 l -12.1269,-12.29689 0.015,-10.84225 0.015,-10.84226 -7.3583,-7.40774 -7.3583,-7.40775 h -14.252 c -14.2228,0 -14.2555,-0.005 -15.9454,-2.58446 -1.4158,-2.16081 -1.5015,-3.11498 -0.523,-5.821 2.3821,-6.58783 0.3169,-11.7667 -5.2497,-13.16381 -2.7465,-0.689333 -8.0502,1.74623 -8.9588,4.11407 -2.3088,6.01649 1.6052,12.44893 7.5834,12.4629 2.7928,0.007 3.6431,0.6166 5.5753,4 l 2.2798,3.9923 h 14.6933 14.6932 l 6.2769,6.22111 6.2769,6.22111 v 11.44296 11.44295 l 12.5558,12.68958 c 11.2697,11.38985 12.4877,12.96064 11.8916,15.33594 -2.1118,8.41402 7.0213,15.67696 14.608,11.61671 z m -8.6913,-2.13995 c -6.9396,-3.36023 -4.1871,-13.83041 3.636,-13.83041 8.0189,0 10.5692,10.59711 3.3426,13.88973 -2.9059,1.32405 -4.1433,1.31353 -6.9786,-0.0593 z m 69.4207,-29.90523 c 3.9217,-1.36711 6.2153,-4.86058 6.2153,-9.46692 0,-7.19563 -8.8687,-12.03414 -15.0452,-8.20826 -1.8338,1.13594 -2.8363,0.41919 -10.9864,-7.85535 l -8.9684,-9.10534 V 115.65526 98.292047 l -5.25,-5.3171 c -4.9356,-4.9986 -5.2507,-5.62027 -5.2611,-10.37874 -0.013,-5.92831 -2.6236,-8.86705 -7.8772,-8.86705 -6.6584,0 -10.237,5.95648 -7.157,11.91252 1.7226,3.33114 5.0106,4.6444 9.4201,3.7625 2.4099,-0.48197 3.5925,0.23928 8.4632,5.16136 l 5.662,5.721623 v 16.99185 16.99185 l 9.0668,8.97915 c 8.5177,8.43531 9.035,9.18396 8.5415,12.36066 -0.7597,4.89065 1.6563,9.89658 5.6042,11.61188 4.0377,1.7543 3.8149,1.7416 7.5722,0.43179 z m -8.7847,-3.92518 c -2.9777,-2.97766 -2.6667,-8.33043 0.6348,-10.92742 1.4492,-1.13992 3.7196,-2.07258 5.0455,-2.07258 3.3296,0 7.3197,4.24116 7.3197,7.78023 0,6.14898 -8.6127,9.60713 -13,5.21977 z"
       id="path240" />
  </g>
</svg>
