<?xml version="1.0" encoding="UTF-8" standalone="no"?>
<!-- Created with Inkscape (http://www.inkscape.org/) -->

<svg
   version="1.1"
   id="svg48"
   width="753"
   height="556.12659"
   viewBox="0 0 753 556.12659"
   sodipodi:docname="discord.jpg"
   inkscape:export-filename="discord.svg"
   inkscape:export-xdpi="96"
   inkscape:export-ydpi="96"
   xmlns:inkscape="http://www.inkscape.org/namespaces/inkscape"
   xmlns:sodipodi="http://sodipodi.sourceforge.net/DTD/sodipodi-0.dtd"
   xmlns="http://www.w3.org/2000/svg"
   xmlns:svg="http://www.w3.org/2000/svg">
  <defs
     id="defs52" />
  <sodipodi:namedview
     id="namedview50"
     pagecolor="#505050"
     bordercolor="#eeeeee"
     borderopacity="1"
     inkscape:showpageshadow="0"
     inkscape:pageopacity="0"
     inkscape:pagecheckerboard="0"
     inkscape:deskcolor="#505050"
     showgrid="false"
     inkscape:zoom="0.69352869"
     inkscape:cx="400.84859"
     inkscape:cy="409.5"
     inkscape:window-width="1360"
     inkscape:window-height="746"
     inkscape:window-x="0"
     inkscape:window-y="22"
     inkscape:window-maximized="1"
     inkscape:current-layer="g54" />
  <g
     inkscape:groupmode="layer"
     inkscape:label="Image"
     id="g54"
     transform="translate(-2.5920956,-4.7506442)">
    <path
       style="fill:#000000"
       d="M 203.45278,560.59793 C 185.0931,559.00547 153.97076,552.28662 132.85088,545.35604 72.102985,525.42135 28.724065,495.53939 6.0510356,458.00885 l -3.45894,-5.72557 0.13895,-22.02056 c 0.49468,-78.39767 23.1111594,-188.39748 56.8539194,-276.52056 15.80091,-41.26588 32.3294,-72.869824 44.475465,-85.041064 9.94965,-9.97025 37.36653,-26.07807 61.53167,-36.15074 28.24223,-11.772123 65.003,-21.538243 98.92407,-26.2808732 18.33113,-2.56294 22.01778,-2.13381 27.77487,3.23303 2.58072,2.4057702 8.66072,16.7133102 7.56709,17.8069502 -0.28565,0.28564 -7.21236,1.86946 -15.39269,3.5196 -39.08341,7.883893 -75.15289,20.294353 -106.87334,36.772023 -24.78698,12.87597 -28.48929,16.22059 -28.49626,25.74319 -0.003,3.64938 0.63691,6.04342 2.24626,8.408054 3.83059,5.62831 7.20492,7.48998 13.57333,7.48862 5.13654,-0.001 6.61377,-0.55928 15.52544,-5.86646 57.6534,-34.334434 150.10738,-54.255274 225.65123,-48.620524 65.88182,4.91406 128.36651,22.7216 172.67079,49.209524 7.88596,4.71473 9.43567,5.27867 14.50588,5.27867 6.36827,0 9.74331,-1.86237 13.57333,-7.48983 1.60935,-2.364634 2.24894,-4.758674 2.24626,-8.408054 -0.007,-9.5416 -3.68637,-12.85482 -28.71494,-25.85734 -31.50097,-16.36498 -66.21058,-28.37037 -104.90591,-36.284953 -9.16057,-1.87367 -16.88175,-3.63284 -17.15819,-3.90927 -1.08099,-1.08099 5.02527,-15.40507 7.58384,-17.7902002 6.13039,-5.71483 9.82882,-5.95358 34.12966,-2.20321 43.3747,6.6940502 83.98026,19.3206002 116.06928,36.0924832 15.10922,7.8971 30.57894,18.09607 37.13728,24.48408 11.27943,10.98651 28.02719,42.037974 42.53694,78.866294 35.44834,89.9742 59.23714,202.94205 59.69951,283.5 l 0.12627,22 -4.9439,7.94712 c -27.75706,44.61836 -88.60248,79.79461 -165.41536,95.63072 -24.54843,5.06103 -40.63273,6.20612 -46.70419,3.32503 -2.48956,-1.18138 -7.5271,-7.29132 -19.35181,-23.47146 -8.79236,-12.03088 -15.66662,-22.07179 -15.27614,-22.31312 0.39048,-0.24133 3.47653,-1.15567 6.85788,-2.03187 18.90398,-4.89851 48.53596,-16.22675 68.44897,-26.16789 21.26134,-10.61427 43.65271,-24.97364 49.72213,-31.88633 6.95669,-7.92323 4.55879,-20.17315 -4.90704,-25.06812 -3.35066,-1.73269 -11.19896,-1.92598 -14.14671,-0.34839 -1.14657,0.61363 -5.56512,3.69628 -9.819,6.85034 -25.68033,19.0408 -65.83973,36.62726 -108.75884,47.62727 -81.32413,20.84308 -180.89585,16.97476 -258.11031,-10.02746 -28.23031,-9.87226 -57.25414,-24.39719 -74.91158,-37.48939 -10.35029,-7.67427 -11.19536,-8.07645 -16.97048,-8.07645 -11.60905,0 -19.5472,12.17274 -14.65764,22.47672 3.38808,7.13986 22.38887,20.46487 48.20082,33.8026 20.84298,10.77014 42.73264,19.48353 66.2432,26.36875 6.325,1.85232 12.06207,3.57498 12.74903,3.82814 1.4455,0.53268 -29.39309,43.31008 -32.62915,45.26116 -3.57495,2.15541 -9.36703,2.84632 -17.7592,2.1184 z M 286.1606,379.14678 c 13.1745,-3.86971 26.54801,-14.4143 33.75229,-26.61263 21.6944,-36.73311 6.11144,-86.44734 -31.21875,-99.59704 -14.10159,-4.96733 -31.34335,-2.75559 -44.17417,5.66661 -13.1463,8.62927 -22.04341,21.30756 -27.1149,38.63844 -2.7473,9.38838 -2.47379,28.7797 0.54303,38.5 6.83576,22.02504 22.18296,38.27555 41.144,43.56567 6.51839,1.81863 20.61418,1.73476 27.0685,-0.16105 z m 212.56311,0.20525 c 18.94549,-5.04459 34.67006,-21.56367 41.51239,-43.60987 3.01682,-9.7203 3.29033,-29.11162 0.54303,-38.5 -3.89862,-13.32282 -9.78013,-23.429 -18.4207,-31.65221 -10.9986,-10.46736 -22.37348,-15.14061 -36.76633,-15.10506 -15.07472,0.0372 -26.43621,5.0238 -38.02192,16.68786 -14.40447,14.50188 -21.7875,37.7978 -18.55461,58.54596 5.04019,32.34709 28.0811,54.93983 56.07653,54.98576 4.675,0.008 10.80922,-0.60092 13.63161,-1.35244 z"
       id="path231" />
  </g>
</svg>
