<?xml version="1.0" encoding="UTF-8" standalone="no"?>
<svg
   width="24"
   height="24"
   viewBox="0 0 24 24"
   fill="none"
   version="1.1"
   id="svg345"
   sodipodi:docname="social-icons-linkedin.svg"
   inkscape:version="1.2.2 (b0a8486541, 2022-12-01)"
   xmlns:inkscape="http://www.inkscape.org/namespaces/inkscape"
   xmlns:sodipodi="http://sodipodi.sourceforge.net/DTD/sodipodi-0.dtd"
   xmlns="http://www.w3.org/2000/svg"
   xmlns:svg="http://www.w3.org/2000/svg">
  <defs
     id="defs349" />
  <sodipodi:namedview
     id="namedview347"
     pagecolor="#505050"
     bordercolor="#eeeeee"
     borderopacity="1"
     inkscape:showpageshadow="0"
     inkscape:pageopacity="0"
     inkscape:pagecheckerboard="0"
     inkscape:deskcolor="#505050"
     showgrid="false"
     inkscape:zoom="23.666667"
     inkscape:cx="2.3239437"
     inkscape:cy="12"
     inkscape:window-width="1360"
     inkscape:window-height="746"
     inkscape:window-x="0"
     inkscape:window-y="22"
     inkscape:window-maximized="1"
     inkscape:current-layer="svg345" />
  <path
     fill-rule="evenodd"
     clip-rule="evenodd"
     d="M12 0C5.37258 0 0 5.37258 0 12C0 18.6274 5.37258 24 12 24C18.6274 24 24 18.6274 24 12C24 5.37258 18.6274 0 12 0ZM16.585 19.8125H19.8271V14.0898C19.8271 11.2773 19.2168 9.11426 15.9355 9.11426C14.3584 9.11426 13.2988 9.97852 12.8643 10.7988H12.8203V9.37305H9.70996V19.8125H12.9521V14.6465C12.9521 13.2842 13.2109 11.9658 14.9004 11.9658C16.5605 11.9658 16.585 13.5234 16.585 14.7344V19.8125ZM4.43164 19.8125V9.37305H7.67871V19.8125H4.43164ZM4.17285 6.06738C4.17285 7.10254 5.0127 7.94727 6.05273 7.94727C7.09277 7.94727 7.93262 7.10742 7.93262 6.06738C7.93262 5.03223 7.08789 4.1875 6.05273 4.1875C5.0127 4.1875 4.17285 5.03223 4.17285 6.06738Z"
     fill="#2E3338"
     id="path343" />
  <path
     style="fill:#000000;stroke-width:0.0422535"
     d="M 10.932308,23.937235 C 6.9125506,23.547214 3.4441513,21.273764 1.4876236,17.746479 -0.46691597,14.222778 -0.45786899,9.7494427 1.5109527,6.2112676 3.1249471,3.3107535 5.8365849,1.2134547 9.0256403,0.39908084 10.126282,0.11801521 10.714453,0.04772621 11.978873,0.04615617 c 1.18199,-0.0014677 1.643484,0.04397633 2.598592,0.25588721 3.525543,0.78221632 6.489477,3.08523372 8.121648,6.31063272 1.387306,2.7415102 1.656809,5.9735019 0.74519,8.9366199 -0.665463,2.163015 -2.000625,4.165658 -3.752618,5.628647 -1.726748,1.441908 -3.724044,2.338993 -5.959291,2.676614 -0.646192,0.0976 -2.179607,0.142881 -2.800086,0.08268 z M 7.6901408,14.598592 V 9.3591549 H 6.0422535 4.3943662 v 5.2112671 c 0,2.866198 0.012676,5.223944 0.028169,5.239437 0.015493,0.01549 0.7570419,0.02817 1.6478873,0.02817 h 1.6197181 z m 5.2916392,2.186619 c 0.01422,-2.987598 0.0165,-3.05987 0.106885,-3.382984 0.181439,-0.648618 0.464836,-1.03101 0.917778,-1.238373 0.68519,-0.313691 1.627154,-0.201421 2.027437,0.241645 0.190709,0.211092 0.303133,0.437363 0.414293,0.833836 0.08858,0.31594 0.09121,0.402521 0.105266,3.461369 l 0.01441,3.137324 h 1.645652 1.645651 l -4.23e-4,-3.010563 C 19.85831,13.803625 19.829621,12.933348 19.705846,12.190141 19.347346,10.037538 18.058484,9.0277741 15.783,9.1167727 14.554781,9.1648107 13.590943,9.672551 12.961444,10.603141 l -0.116017,0.171507 -1.69e-4,-0.707747 -1.88e-4,-0.7077461 H 11.260563 9.6760563 v 5.2394371 5.239436 h 1.6455977 1.645598 z M 6.5205803,7.9016096 C 6.8639962,7.8121614 7.0792635,7.6920782 7.3425114,7.443109 7.7295123,7.0770997 7.943662,6.5949423 7.943662,6.0896197 7.943662,5.1856851 7.3705162,4.4575365 6.4755089,4.224417 6.1733641,4.1457181 5.9658524,4.1463706 5.6233787,4.2270959 4.860619,4.4068893 4.3037434,5.0137783 4.1820951,5.7978224 3.9781264,7.1124317 5.2292239,8.2379649 6.5205803,7.9016092 Z"
     id="path351" />
</svg>
