<?xml version="1.0" encoding="UTF-8" standalone="no"?>
<svg
   width="24"
   height="24"
   viewBox="0 0 24 24"
   fill="none"
   version="1.1"
   id="svg4"
   sodipodi:docname="social-icons-twitter.svg"
   inkscape:version="1.2.2 (b0a8486541, 2022-12-01)"
   xmlns:inkscape="http://www.inkscape.org/namespaces/inkscape"
   xmlns:sodipodi="http://sodipodi.sourceforge.net/DTD/sodipodi-0.dtd"
   xmlns="http://www.w3.org/2000/svg"
   xmlns:svg="http://www.w3.org/2000/svg">
  <defs
     id="defs8" />
  <sodipodi:namedview
     id="namedview6"
     pagecolor="#505050"
     bordercolor="#eeeeee"
     borderopacity="1"
     inkscape:showpageshadow="0"
     inkscape:pageopacity="0"
     inkscape:pagecheckerboard="0"
     inkscape:deskcolor="#505050"
     showgrid="false"
     inkscape:zoom="23.666667"
     inkscape:cx="2.3239437"
     inkscape:cy="12"
     inkscape:window-width="1360"
     inkscape:window-height="746"
     inkscape:window-x="0"
     inkscape:window-y="22"
     inkscape:window-maximized="1"
     inkscape:current-layer="svg4" />
  <path
     fill-rule="evenodd"
     clip-rule="evenodd"
     d="M12 24C5.37258 24 0 18.6274 0 12C0 5.37258 5.37258 0 12 0C18.6274 0 24 5.37258 24 12C24 18.6274 18.6274 24 12 24ZM17.9677 9.38437C17.9677 9.25313 17.9677 9.12186 17.9582 8.99061C18.5578 8.55934 19.0813 8.02499 19.5 7.42501C18.948 7.65936 18.3484 7.82815 17.7297 7.89374C18.3674 7.51877 18.8528 6.92814 19.0812 6.225C18.4911 6.57187 17.8249 6.82501 17.1301 6.95625C16.5685 6.36562 15.769 6 14.8839 6C13.1802 6 11.8096 7.35936 11.8096 9.02813C11.8096 9.26251 11.8382 9.49686 11.8858 9.72186C9.33503 9.59059 7.06026 8.39061 5.54693 6.55311C5.28041 7.00311 5.12816 7.51874 5.12816 8.08123C5.12816 9.13124 5.67065 10.0594 6.4987 10.6031C5.99429 10.5844 5.51836 10.4438 5.10911 10.2188V10.2562C5.10911 11.7281 6.16562 12.9469 7.57425 13.2281C7.31729 13.2937 7.04125 13.3312 6.76524 13.3312C6.56535 13.3312 6.37501 13.3125 6.18464 13.2844C6.57487 14.4844 7.70749 15.3563 9.05902 15.3844C8.00254 16.2 6.67955 16.6781 5.24239 16.6781C4.98539 16.6781 4.74747 16.6687 4.5 16.6406C5.86105 17.5031 7.47906 18 9.22083 18C14.8744 18 17.9677 13.3875 17.9677 9.38437Z"
     fill="#2E3338"
     id="path2" />
  <path
     style="fill:#000000;stroke-width:0.0422535"
     d="M 10.901408,23.931925 C 8.5511763,23.71236 6.3116463,22.799253 4.4577465,21.304698 3.9154615,20.867525 2.9795029,19.91557 2.5587438,19.373239 0.04610462,16.134614 -0.64952485,11.916896 0.6910822,8.0492958 1.7516545,4.9895848 4.1075493,2.4125663 7.0555956,1.0874104 12.209534,-1.2293007 18.208574,0.31968624 21.605504,4.8442813 c 1.204011,1.6037032 1.990851,3.5333966 2.271681,5.5712117 0.0913,0.662496 0.121677,1.871611 0.0637,2.535211 -0.256869,2.939928 -1.451782,5.504935 -3.518011,7.551783 -2.022955,2.003981 -4.541743,3.171372 -7.408786,3.433776 -0.537431,0.04919 -1.562259,0.04708 -2.112677,-0.0043 z m -0.147887,-6.036973 c 1.571935,-0.259754 2.939511,-0.879173 4.119718,-1.865955 1.888058,-1.578622 3.101445,-4.147472 3.106592,-6.5769359 L 17.98079,9 18.34324,8.7042254 c 0.423898,-0.3459195 1.207947,-1.2093782 1.150405,-1.2669203 -0.0091,-0.0091 -0.177765,0.040625 -0.374812,0.1104988 -0.403659,0.1431385 -0.980928,0.2897193 -1.139958,0.2894595 -0.102098,-1.69e-4 -0.100683,-0.00393 0.04225,-0.1122651 0.254116,-0.1926097 0.620663,-0.5937013 0.774603,-0.8476031 0.165314,-0.2726624 0.303829,-0.5947386 0.270228,-0.628339 -0.01215,-0.012147 -0.161886,0.048321 -0.332754,0.1343742 -0.393089,0.1979688 -0.762701,0.33723 -1.21966,0.4595388 L 17.153848,6.9392446 16.95606,6.7652007 C 16.546981,6.4052294 16.010831,6.1454037 15.459397,6.039897 13.953395,5.7517513 12.460205,6.6158303 11.950507,8.0704225 11.840839,8.3833944 11.83202,8.4562141 11.831524,9.0528169 l -5.38e-4,0.6443662 -0.105634,-2.113e-4 C 11.546538,9.6966338 10.529518,9.5380069 10.242919,9.4657407 8.6226663,9.0571918 7.2235137,8.257549 6.0581121,7.0740427 L 5.5246745,6.5323183 5.3957218,6.8154465 C 5.0600468,7.5524523 5.02749,8.3580744 5.3028862,9.1126787 5.470053,9.5707263 5.7074472,9.925053 6.0917341,10.290088 l 0.3164497,0.300597 -0.2040917,-0.02976 c -0.2605762,-0.038 -0.7081166,-0.17419 -0.9101552,-0.276965 -0.086222,-0.04384 -0.1696546,-0.07973 -0.1854055,-0.07973 -0.052023,0 0.027526,0.632154 0.1158701,0.920789 0.1535789,0.501767 0.362392,0.84369 0.7536913,1.234141 0.40914,0.408253 0.7173761,0.605913 1.1956602,0.766731 l 0.3325056,0.111802 -0.2249603,0.03315 c -0.123728,0.01824 -0.4216783,0.03067 -0.6621114,0.02763 l -0.4371511,-0.0055 0.027666,0.114093 c 0.04401,0.181492 0.3546456,0.70015 0.5597886,0.934659 0.4825648,0.551644 1.1934477,0.923662 1.9980663,1.045625 l 0.2323449,0.03522 -0.3379787,0.216203 c -0.6325115,0.404614 -1.1572851,0.635506 -1.8591059,0.817978 -0.5767048,0.149943 -1.3883742,0.232277 -1.9219787,0.194963 -0.2781174,-0.01945 -0.3873655,-0.01454 -0.3568048,0.01602 0.1107684,0.110769 0.9351367,0.52926 1.417402,0.719544 0.7778218,0.306902 1.5807511,0.503593 2.4163719,0.591931 0.554684,0.05864 1.7950726,0.01504 2.3957136,-0.08422 z"
     id="path129" />
</svg>
