<?xml version="1.0" encoding="UTF-8" standalone="no"?>
<svg
   width="24"
   height="24"
   viewBox="0 0 24 24"
   fill="none"
   version="1.1"
   id="svg11"
   sodipodi:docname="social-icons-telegram.svg"
   inkscape:version="1.2.2 (b0a8486541, 2022-12-01)"
   xmlns:inkscape="http://www.inkscape.org/namespaces/inkscape"
   xmlns:sodipodi="http://sodipodi.sourceforge.net/DTD/sodipodi-0.dtd"
   xmlns="http://www.w3.org/2000/svg"
   xmlns:svg="http://www.w3.org/2000/svg">
  <sodipodi:namedview
     id="namedview13"
     pagecolor="#505050"
     bordercolor="#eeeeee"
     borderopacity="1"
     inkscape:showpageshadow="0"
     inkscape:pageopacity="0"
     inkscape:pagecheckerboard="0"
     inkscape:deskcolor="#505050"
     showgrid="false"
     inkscape:zoom="23.666667"
     inkscape:cx="2.3239437"
     inkscape:cy="12"
     inkscape:window-width="1360"
     inkscape:window-height="746"
     inkscape:window-x="0"
     inkscape:window-y="22"
     inkscape:window-maximized="1"
     inkscape:current-layer="svg11" />
  <g
     clip-path="url(#clip0_551_1988)"
     id="g4">
    <path
       d="M12 0.375C5.57812 0.375 0.375 5.57812 0.375 12C0.375 18.4219 5.57812 23.625 12 23.625C18.4219 23.625 23.625 18.4219 23.625 12C23.625 5.57812 18.4219 0.375 12 0.375ZM17.7094 8.33906L15.8016 17.3297C15.6609 17.9672 15.2813 18.1219 14.7516 17.8219L11.8453 15.6797L10.4438 17.0297C10.2891 17.1844 10.1578 17.3156 9.85781 17.3156L10.0641 14.3578L15.45 9.49219C15.6844 9.28594 15.3984 9.16875 15.0891 9.375L8.43281 13.5656L5.56406 12.6703C4.94062 12.4734 4.92656 12.0469 5.69531 11.7469L16.9031 7.425C17.4234 7.2375 17.8781 7.55156 17.7094 8.33906Z"
       fill="#2E3338"
       id="path2" />
  </g>
  <defs
     id="defs9">
    <clipPath
       id="clip0_551_1988">
      <rect
         width="24"
         height="24"
         fill="white"
         id="rect6" />
    </clipPath>
  </defs>
  <path
     style="fill:#000000;stroke-width:0.0422535"
     d="M 10.859155,23.555405 C 7.6734038,23.203146 4.8797341,21.679208 2.921343,19.225352 1.6307597,17.608257 0.83850262,15.763459 0.49885471,13.584507 0.3952912,12.920113 0.3951,11.072504 0.49852542,10.402598 0.90025437,7.800521 2.0017562,5.5970239 3.7993901,3.7993901 5.5970054,2.0017748 7.7969797,0.90195232 10.402598,0.49828084 c 0.644345,-0.0998243 2.550459,-0.0998243 3.194804,0 2.609728,0.40430829 4.810302,1.50466446 6.601803,3.30110926 1.806384,1.8113692 2.898415,3.9948279 3.302514,6.6032079 0.09982,0.644345 0.09982,2.550459 0,3.194804 -0.403672,2.605618 -1.503494,4.805593 -3.301109,6.603208 -1.7917,1.7917 -4.025822,2.910461 -6.58215,3.296083 -0.512419,0.0773 -2.255743,0.114392 -2.759305,0.05871 z m 4.685929,-5.705263 c 0.08794,-0.07721 0.172791,-0.20826 0.212023,-0.327464 0.07699,-0.233927 1.962966,-9.1052725 1.998184,-9.3991487 C 17.787727,7.8528617 17.676474,7.5627524 17.49866,7.4543273 17.265935,7.312418 17.051711,7.3465758 16.266082,7.6508603 15.524738,7.9379928 13.52246,8.7103796 10.521127,9.8669996 9.5683099,10.234185 8.0661972,10.813148 7.1830986,11.153583 6.3,11.494018 5.4975317,11.819265 5.3998352,11.876354 4.9474614,12.1407 5.000013,12.47964 5.5229793,12.67059 c 0.099685,0.0364 0.7956106,0.257704 1.5465,0.49179 l 1.3652539,0.425612 3.3642628,-2.118387 c 1.850345,-1.165112 3.410851,-2.1360988 3.467792,-2.1577478 0.109368,-0.041582 0.261381,-0.014188 0.261381,0.047102 0,0.019999 -0.394542,0.3931031 -0.876761,0.8291188 -0.482218,0.436016 -1.718133,1.552729 -2.746478,2.481585 -1.341228,1.211468 -1.869719,1.714047 -1.869719,1.778045 0,0.04907 -0.037722,0.630733 -0.083826,1.292586 -0.046105,0.661852 -0.088886,1.288931 -0.09507,1.393509 l -0.011244,0.190141 0.1455773,-0.01184 c 0.1911037,-0.01555 0.2963197,-0.100052 1.1190947,-0.898805 0.381767,-0.370622 0.71484,-0.673858 0.74016,-0.673858 0.02532,0 0.668395,0.460522 1.429054,1.023384 0.760659,0.562861 1.467048,1.066735 1.569754,1.119718 0.272749,0.140705 0.511894,0.129579 0.696374,-0.0324 z"
     id="path188" />
</svg>
