<svg width="24" height="24" viewBox="0 0 24 24" fill="none" xmlns="http://www.w3.org/2000/svg">
<path fill-rule="evenodd" clip-rule="evenodd" d="M12 0C5.37258 0 0 5.37258 0 12C0 18.6274 5.37258 24 12 24C18.6274 24 24 18.6274 24 12C24 5.37258 18.6274 0 12 0ZM17.7821 9.30509C18.1851 10.285 18.7162 11.853 18.9217 13.6941C19.0324 14.6862 18.7564 15.723 17.9211 16.2697C17.3881 16.6185 16.6417 16.9394 15.6438 17.0225C15.4504 17.0386 15.2633 16.9534 15.1398 16.8036C15.0871 16.7398 15.0264 16.6661 14.9614 16.5865C14.7609 16.3412 14.8805 15.9715 15.1707 15.8442C15.309 15.7835 15.4369 15.7191 15.5548 15.653C15.8791 15.4712 15.6846 15.2186 15.336 15.3481C12.7506 16.434 9.87347 16.0623 7.84801 14.9281C7.8421 14.9241 7.82056 14.9117 7.78878 14.8935C7.68757 14.8353 7.59669 14.9354 7.679 15.0182C7.92125 15.2618 8.30987 15.5763 8.87823 15.8303C9.14796 15.9508 9.2569 16.2953 9.07125 16.5251C8.99214 16.6231 8.91802 16.7143 8.85476 16.792C8.72711 16.9488 8.53246 17.0386 8.33106 17.0213C7.33015 16.9357 6.58506 16.6105 6.05578 16.2591C5.23698 15.7156 4.96826 14.6952 5.07563 13.7183C5.28078 11.8519 5.82179 10.2639 6.22764 9.28145C6.52255 8.56756 7.02477 7.94996 7.7141 7.60149C8.87428 7.01499 9.83835 6.9641 10.0492 6.96024C10.0765 6.95974 10.102 6.97208 10.1195 6.99305C10.1631 7.04537 10.138 7.12548 10.0728 7.14518C8.968 7.47905 8.18147 7.89422 7.68909 8.20794C7.5868 8.27311 7.6538 8.37869 7.764 8.32805C9.71332 7.4718 11.9526 7.21933 14.1029 7.69227C14.5205 7.78411 14.6772 7.47551 14.2751 7.33025C14.1638 7.29005 14.0486 7.25046 13.9294 7.21174C13.8407 7.18296 13.8094 7.07278 13.8707 7.00265C13.8945 6.97551 13.9275 6.95964 13.9635 6.96051C14.1964 6.96616 15.1347 7.02522 16.2627 7.58982C16.9687 7.94316 17.4819 8.57497 17.7821 9.30509ZM15.36 12.768C15.36 13.5 14.82 14.1 14.136 14.1C13.464 14.1 12.912 13.5 12.912 12.768C12.912 12.036 13.452 11.436 14.136 11.436C14.82 11.436 15.36 12.036 15.36 12.768ZM9.75601 11.436C9.07201 11.436 8.532 12.036 8.532 12.768C8.532 13.5 9.08401 14.1 9.75601 14.1C10.44 14.1 10.98 13.5 10.98 12.768C10.992 12.036 10.44 11.436 9.75601 11.436Z" fill="#2E3338"/>
</svg>
