<?xml version="1.0" encoding="UTF-8" standalone="no"?>
<svg
   width="24"
   height="24"
   viewBox="0 0 24 24"
   fill="none"
   version="1.1"
   id="svg195"
   sodipodi:docname="social-icons-github.svg"
   inkscape:version="1.2.2 (b0a8486541, 2022-12-01)"
   xmlns:inkscape="http://www.inkscape.org/namespaces/inkscape"
   xmlns:sodipodi="http://sodipodi.sourceforge.net/DTD/sodipodi-0.dtd"
   xmlns="http://www.w3.org/2000/svg"
   xmlns:svg="http://www.w3.org/2000/svg">
  <sodipodi:namedview
     id="namedview197"
     pagecolor="#505050"
     bordercolor="#eeeeee"
     borderopacity="1"
     inkscape:showpageshadow="0"
     inkscape:pageopacity="0"
     inkscape:pagecheckerboard="0"
     inkscape:deskcolor="#505050"
     showgrid="false"
     inkscape:zoom="23.666667"
     inkscape:cx="10.098592"
     inkscape:cy="12"
     inkscape:window-width="1360"
     inkscape:window-height="746"
     inkscape:window-x="0"
     inkscape:window-y="22"
     inkscape:window-maximized="1"
     inkscape:current-layer="svg195" />
  <g
     clip-path="url(#clip0_551_1961)"
     id="g188">
    <path
       d="M8.15156 18.6281C8.15156 18.7219 8.04375 18.7969 7.90781 18.7969C7.75312 18.8109 7.64531 18.7359 7.64531 18.6281C7.64531 18.5344 7.75313 18.4594 7.88906 18.4594C8.02969 18.4453 8.15156 18.5203 8.15156 18.6281ZM6.69375 18.4172C6.66094 18.5109 6.75469 18.6187 6.89531 18.6469C7.01719 18.6937 7.15781 18.6469 7.18594 18.5531C7.21406 18.4594 7.125 18.3516 6.98438 18.3094C6.8625 18.2766 6.72656 18.3234 6.69375 18.4172ZM8.76562 18.3375C8.62969 18.3703 8.53594 18.4594 8.55 18.5672C8.56406 18.6609 8.68594 18.7219 8.82656 18.6891C8.9625 18.6562 9.05625 18.5672 9.04219 18.4734C9.02812 18.3844 8.90156 18.3234 8.76562 18.3375ZM11.85 0.375C5.34844 0.375 0.375 5.31094 0.375 11.8125C0.375 17.0109 3.64688 21.4594 8.32031 23.025C8.92031 23.1328 9.13125 22.7625 9.13125 22.4578C9.13125 22.1672 9.11719 20.5641 9.11719 19.5797C9.11719 19.5797 5.83594 20.2828 5.14688 18.1828C5.14688 18.1828 4.6125 16.8187 3.84375 16.4672C3.84375 16.4672 2.77031 15.7312 3.91875 15.7453C3.91875 15.7453 5.08594 15.8391 5.72812 16.9547C6.75469 18.7641 8.475 18.2437 9.14531 17.9344C9.25313 17.1844 9.55781 16.6641 9.89531 16.3547C7.275 16.0641 4.63125 15.6844 4.63125 11.175C4.63125 9.88594 4.9875 9.23906 5.7375 8.41406C5.61562 8.10938 5.21719 6.85312 5.85938 5.23125C6.83906 4.92656 9.09375 6.49688 9.09375 6.49688C10.0312 6.23438 11.0391 6.09844 12.0375 6.09844C13.0359 6.09844 14.0438 6.23438 14.9813 6.49688C14.9813 6.49688 17.2359 4.92188 18.2156 5.23125C18.8578 6.85781 18.4594 8.10938 18.3375 8.41406C19.0875 9.24375 19.5469 9.89062 19.5469 11.175C19.5469 15.6984 16.7859 16.0594 14.1656 16.3547C14.5969 16.725 14.9625 17.4281 14.9625 18.5297C14.9625 20.1094 14.9484 22.0641 14.9484 22.4484C14.9484 22.7531 15.1641 23.1234 15.7594 23.0156C20.4469 21.4594 23.625 17.0109 23.625 11.8125C23.625 5.31094 18.3516 0.375 11.85 0.375ZM4.93125 16.5422C4.87031 16.5891 4.88438 16.6969 4.96406 16.7859C5.03906 16.8609 5.14687 16.8938 5.20781 16.8328C5.26875 16.7859 5.25469 16.6781 5.175 16.5891C5.1 16.5141 4.99219 16.4812 4.93125 16.5422ZM4.425 16.1625C4.39219 16.2234 4.43906 16.2984 4.53281 16.3453C4.60781 16.3922 4.70156 16.3781 4.73438 16.3125C4.76719 16.2516 4.72031 16.1766 4.62656 16.1297C4.53281 16.1016 4.45781 16.1156 4.425 16.1625ZM5.94375 17.8312C5.86875 17.8922 5.89687 18.0328 6.00469 18.1219C6.1125 18.2297 6.24844 18.2437 6.30937 18.1688C6.37031 18.1078 6.34219 17.9672 6.24844 17.8781C6.14531 17.7703 6.00469 17.7563 5.94375 17.8312ZM5.40938 17.1422C5.33437 17.1891 5.33437 17.3109 5.40938 17.4188C5.48438 17.5266 5.61094 17.5734 5.67188 17.5266C5.74687 17.4656 5.74687 17.3438 5.67188 17.2359C5.60625 17.1281 5.48438 17.0813 5.40938 17.1422Z"
       fill="#2E3338"
       id="path186" />
  </g>
  <defs
     id="defs193">
    <clipPath
       id="clip0_551_1961">
      <rect
         width="24"
         height="24"
         fill="white"
         id="rect190" />
    </clipPath>
  </defs>
  <path
     style="fill:#000000;stroke-width:0.0422535"
     d="M 7.8802817,22.845014 C 5.8189039,22.045296 4.1080205,20.748633 2.7658726,18.968851 0.62749563,16.133212 -0.12286243,12.351129 0.75954156,8.8561986 1.2970991,6.727099 2.4918411,4.7209525 4.0525073,3.3268284 5.7482142,1.8120738 7.7385406,0.88287908 10.060852,0.5218 c 0.513802,-0.0798873 0.785172,-0.0949238 1.749007,-0.0969118 1.191756,-0.002458 1.49038,0.0232199 2.477491,0.21303323 3.029048,0.58246137 5.768157,2.39436587 7.4612,4.93554147 0.338118,0.5074985 0.831107,1.4534049 1.065697,2.0447716 0.972931,2.4526125 1.048423,5.3104905 0.20959,7.9343515 -0.949885,2.97123 -3.00235,5.408163 -5.713605,6.783876 -0.765902,0.388625 -1.505875,0.670631 -1.759163,0.670422 -0.248834,-2.11e-4 -0.452177,-0.124317 -0.537765,-0.328232 -0.05784,-0.137805 -0.06369,-0.411428 -0.04674,-2.185694 0.01065,-1.115493 0.0042,-2.189789 -0.01442,-2.387324 -0.06069,-0.645032 -0.232459,-1.122356 -0.547149,-1.520468 -0.189995,-0.240362 -0.20415,-0.226331 0.278109,-0.275677 0.451086,-0.04616 1.257457,-0.190549 1.668123,-0.298702 2.114657,-0.556916 3.088765,-1.914123 3.198125,-4.455891 0.05378,-1.249949 -0.177267,-1.95365 -0.934523,-2.8462971 L 18.374304,8.4250698 18.466484,8.0364785 C 18.592168,7.50664 18.6174,6.8670907 18.532914,6.352565 18.458594,5.8999453 18.270013,5.2581722 18.195797,5.2053185 c -0.09077,-0.064644 -0.677681,0.00233 -1.019739,0.1163658 -0.448315,0.1494591 -1.159826,0.5013743 -1.732394,0.8568473 l -0.464789,0.2885598 -0.316901,-0.07416 C 12.953441,5.9931059 11.069874,5.9933666 9.4175472,6.3936579 L 9.0956577,6.4716385 8.6992373,6.2213827 C 7.8248176,5.6693717 6.8303848,5.2398368 6.3107793,5.1897135 5.8809401,5.1482489 5.8507475,5.1673931 5.7267063,5.5600534 5.4465866,6.4467879 5.4153579,7.4796262 5.6471535,8.191121 5.7101801,8.3845817 5.7094948,8.40189 5.6351721,8.4935721 5.0800703,9.1783285 4.8782911,9.5341817 4.7250782,10.098593 c -0.1304907,0.480708 -0.1295176,1.791897 0.00188,2.526454 0.3481386,1.946284 1.3051276,2.974747 3.1955819,3.434248 0.2323943,0.05649 0.6982394,0.141773 1.0352112,0.189526 0.3369719,0.04775 0.6756981,0.09637 0.752725,0.108047 l 0.1400492,0.02122 -0.1563549,0.173066 C 9.4992,16.766963 9.272307,17.251523 9.1848165,17.638942 L 9.1182435,17.933736 8.8967704,18.0166 C 8.3420117,18.224162 7.7468125,18.279364 7.271539,18.167335 6.661107,18.023444 6.2106714,17.66302 5.7336385,16.936755 5.4200345,16.459305 5.1830696,16.232354 4.7746479,16.018289 4.1145947,15.672339 3.3802817,15.638506 3.3802817,15.954044 c 0,0.103521 0.2968838,0.430309 0.5016026,0.552128 0.2227665,0.132559 0.5390834,0.445159 0.7206046,0.712138 0.1832421,0.26951 0.2981801,0.484401 0.5893804,1.10192 0.1751996,0.371528 0.2541017,0.487095 0.4673637,0.684538 0.6250001,0.57864 1.6650655,0.808915 2.9875255,0.661452 0.2221952,-0.02478 0.4091095,-0.03904 0.4153656,-0.03169 0.00626,0.0073 0.024683,0.643379 0.040949,1.413405 0.031846,1.50759 0.01802,1.659043 -0.1673434,1.833183 -0.08481,0.07967 -0.162875,0.103798 -0.3701932,0.114393 -0.2233918,0.01142 -0.3259703,-0.01111 -0.6852548,-0.150497 z"
     id="path253" />
  <path
     style="fill:#000000;stroke-width:0.0422535"
     d="m 5.4507038,17.429577 c -0.113117,-0.113117 -0.097316,-0.269817 0.02902,-0.2878 0.061315,-0.0087 0.1157978,0.02256 0.161949,0.09299 0.1391515,0.212372 -0.015572,0.370205 -0.1909692,0.194807 z"
     id="path255" />
  <path
     style="fill:#000000;stroke-width:0.0422535"
     d="m 6.0035412,18.088277 c -0.128724,-0.137021 -0.1026134,-0.257291 0.055858,-0.257291 0.08116,0 0.1483797,0.03584 0.2020504,0.107725 0.1637806,0.219366 -0.066743,0.353051 -0.2579084,0.149566 z"
     id="path257" />
  <path
     style="fill:#000000;stroke-width:0.0422535"
     d="m 4.9621207,16.734253 c -0.077284,-0.117951 -0.051225,-0.191999 0.067568,-0.191999 0.091945,0 0.2311845,0.184652 0.1897697,0.251663 -0.048729,0.07885 -0.1876933,0.04663 -0.2573376,-0.05966 z"
     id="path259" />
  <path
     style="fill:#000000;stroke-width:0.0422535"
     d="m 4.5126282,16.289613 c -0.076791,-0.06276 -0.086313,-0.0904 -0.045464,-0.131946 0.064717,-0.06583 0.2652307,0.01318 0.2652307,0.104512 0,0.09798 -0.1157748,0.112427 -0.2197662,0.02743 z"
     id="path261" />
  <path
     style="fill:#000000;stroke-width:0.0422535"
     d="m 6.8450704,18.600432 c -0.1482121,-0.07472 -0.1640343,-0.230312 -0.026919,-0.264726 0.1421963,-0.03569 0.2705267,0.01048 0.3280886,0.118036 0.038826,0.07255 0.033456,0.09918 -0.029247,0.145026 -0.09465,0.06921 -0.137415,0.06947 -0.2719218,0.0017 z"
     id="path263" />
  <path
     style="fill:#000000;stroke-width:0.0422535"
     d=""
     id="path265" />
  <path
     style="fill:#000000;stroke-width:0.0422535"
     d="m 8.6514085,18.6512 c -0.098361,-0.05683 -0.094066,-0.193795 0.00779,-0.248305 0.1187067,-0.06353 0.2402977,-0.05371 0.3198469,0.02584 0.06461,0.06461 0.064071,0.07487 -0.00755,0.143472 -0.1039545,0.09959 -0.2304241,0.130794 -0.3200871,0.07899 z"
     id="path267" />
  <path
     style="fill:#000000;stroke-width:0.0422535"
     d="m 7.7160811,18.717087 c -0.1270749,-0.127075 0.034464,-0.258401 0.2756684,-0.22411 0.1123373,0.01597 0.1529323,0.135856 0.076988,0.227363 -0.066757,0.08044 -0.2708493,0.07856 -0.3526568,-0.0033 z"
     id="path269" />
</svg>
